<?xml version="1.0" encoding="UTF-8" standalone="no"?>
<!DOCTYPE svg PUBLIC "-//W3C//DTD SVG 1.1//EN"
 "http://www.w3.org/Graphics/SVG/1.1/DTD/svg11.dtd">
<!-- Generated by graphviz version 2.43.0 (0)
 -->
<!-- Title: solar_system::Settings::defaultFpsVisible Pages: 1 -->
<svg width="407pt" height="124pt"
 viewBox="0.00 0.00 407.00 123.50" xmlns="http://www.w3.org/2000/svg" xmlns:xlink="http://www.w3.org/1999/xlink">
<g id="graph0" class="graph" transform="scale(1 1) rotate(0) translate(4 119.5)">
<title>solar_system::Settings::defaultFpsVisible</title>
<!-- Node1 -->
<g id="Node000001" class="node">
<title>Node1</title>
<g id="a_Node000001"><a xlink:title="Returns the default FPS visibility for the application.">
<polygon fill="#999999" stroke="#666666" points="399,-67.5 271,-67.5 271,-37.5 399,-37.5 399,-67.5"/>
<text text-anchor="start" x="279" y="-55.5" font-family="Helvetica,sans-Serif" font-size="10.00">solar_system::Settings</text>
<text text-anchor="middle" x="335" y="-44.5" font-family="Helvetica,sans-Serif" font-size="10.00">::defaultFpsVisible</text>
</a>
</g>
</g>
<!-- Node2 -->
<g id="Node000002" class="node">
<title>Node2</title>
<g id="a_Node000002"><a xlink:href="classsolar__system_1_1Settings.html#a9b9700382557b31f3734f6d91a3119b8" target="_top" xlink:title="Returns the current FPS visibility for the application.">
<polygon fill="white" stroke="#666666" points="235,-115.5 107,-115.5 107,-85.5 235,-85.5 235,-115.5"/>
<text text-anchor="start" x="115" y="-103.5" font-family="Helvetica,sans-Serif" font-size="10.00">solar_system::Settings</text>
<text text-anchor="middle" x="171" y="-92.5" font-family="Helvetica,sans-Serif" font-size="10.00">::isFpsVisible</text>
</a>
</g>
</g>
<!-- Node1&#45;&gt;Node2 -->
<g id="edge1_Node000001_Node000002" class="edge">
<title>Node1&#45;&gt;Node2</title>
<g id="a_edge1_Node000001_Node000002"><a xlink:title=" ">
<path fill="none" stroke="#63b8ff" d="M273.5,-70.43C256.75,-75.39 238.75,-80.72 222.63,-85.5"/>
<polygon fill="#63b8ff" stroke="#63b8ff" points="274.59,-73.75 283.19,-67.56 272.6,-67.04 274.59,-73.75"/>
</a>
</g>
</g>
<!-- Node4 -->
<g id="Node000004" class="node">
<title>Node4</title>
<g id="a_Node000004"><a xlink:href="classsolar__system_1_1Settings.html#ae7d1fbd1fbb2b916a20ea03d0b0e62e6" target="_top" xlink:title="Sets the current FPS visibility for the application.">
<polygon fill="white" stroke="#666666" points="235,-67.5 107,-67.5 107,-37.5 235,-37.5 235,-67.5"/>
<text text-anchor="start" x="115" y="-55.5" font-family="Helvetica,sans-Serif" font-size="10.00">solar_system::Settings</text>
<text text-anchor="middle" x="171" y="-44.5" font-family="Helvetica,sans-Serif" font-size="10.00">::setFpsVisible</text>
</a>
</g>
</g>
<!-- Node1&#45;&gt;Node4 -->
<g id="edge3_Node000001_Node000004" class="edge">
<title>Node1&#45;&gt;Node4</title>
<g id="a_edge3_Node000001_Node000004"><a xlink:title=" ">
<path fill="none" stroke="#63b8ff" d="M260.63,-52.5C252.14,-52.5 243.53,-52.5 235.19,-52.5"/>
<polygon fill="#63b8ff" stroke="#63b8ff" points="260.9,-56 270.9,-52.5 260.9,-49 260.9,-56"/>
</a>
</g>
</g>
<!-- Node5 -->
<g id="Node000005" class="node">
<title>Node5</title>
<g id="a_Node000005"><a xlink:href="tst__settings_8cpp.html#ad9d8c2ff30fae39b4ceba73773acf481" target="_top" xlink:title=" ">
<polygon fill="white" stroke="#666666" points="206.5,-19 135.5,-19 135.5,0 206.5,0 206.5,-19"/>
<text text-anchor="middle" x="171" y="-7" font-family="Helvetica,sans-Serif" font-size="10.00">TEST_CASE</text>
</a>
</g>
</g>
<!-- Node1&#45;&gt;Node5 -->
<g id="edge5_Node000001_Node000005" class="edge">
<title>Node1&#45;&gt;Node5</title>
<g id="a_edge5_Node000001_Node000005"><a xlink:title=" ">
<path fill="none" stroke="#63b8ff" d="M267.54,-34.86C246.65,-29.31 224.42,-23.42 206.67,-18.7"/>
<polygon fill="#63b8ff" stroke="#63b8ff" points="266.78,-38.28 277.34,-37.46 268.57,-31.51 266.78,-38.28"/>
</a>
</g>
</g>
<!-- Node3 -->
<g id="Node000003" class="node">
<title>Node3</title>
<g id="a_Node000003"><a xlink:href="tst__settings_8cpp.html#ad92d094058c332311f48714e87bab29d" target="_top" xlink:title=" ">
<polygon fill="white" stroke="#666666" points="71,-86 0,-86 0,-67 71,-67 71,-86"/>
<text text-anchor="middle" x="35.5" y="-74" font-family="Helvetica,sans-Serif" font-size="10.00">TEST_CASE</text>
</a>
</g>
</g>
<!-- Node2&#45;&gt;Node3 -->
<g id="edge2_Node000002_Node000003" class="edge">
<title>Node2&#45;&gt;Node3</title>
<g id="a_edge2_Node000002_Node000003"><a xlink:title=" ">
<path fill="none" stroke="#63b8ff" d="M96.71,-87.32C87.82,-85.73 79.09,-84.16 71.16,-82.73"/>
<polygon fill="#63b8ff" stroke="#63b8ff" points="96.31,-90.81 106.77,-89.13 97.55,-83.92 96.31,-90.81"/>
</a>
</g>
</g>
<!-- Node4&#45;&gt;Node3 -->
<g id="edge4_Node000004_Node000003" class="edge">
<title>Node4&#45;&gt;Node3</title>
<g id="a_edge4_Node000004_Node000003"><a xlink:title=" ">
<path fill="none" stroke="#63b8ff" d="M96.71,-65.68C87.82,-67.27 79.09,-68.84 71.16,-70.27"/>
<polygon fill="#63b8ff" stroke="#63b8ff" points="97.55,-69.08 106.77,-63.87 96.31,-62.19 97.55,-69.08"/>
</a>
</g>
</g>
</g>
</svg>
