<?xml version="1.0" encoding="UTF-8" standalone="no"?>
<!DOCTYPE svg PUBLIC "-//W3C//DTD SVG 1.1//EN"
 "http://www.w3.org/Graphics/SVG/1.1/DTD/svg11.dtd">
<!-- Generated by graphviz version 2.43.0 (0)
 -->
<!-- Title: solar_system::Settings::defaultWindowOpacity Pages: 1 -->
<svg width="306pt" height="76pt"
 viewBox="0.00 0.00 306.00 75.50" xmlns="http://www.w3.org/2000/svg" xmlns:xlink="http://www.w3.org/1999/xlink">
<g id="graph0" class="graph" transform="scale(1 1) rotate(0) translate(4 71.5)">
<title>solar_system::Settings::defaultWindowOpacity</title>
<!-- Node1 -->
<g id="Node000001" class="node">
<title>Node1</title>
<g id="a_Node000001"><a xlink:title="Returns the default window opacity for the application.">
<polygon fill="#999999" stroke="#666666" points="298,-51 164,-51 164,-21 298,-21 298,-51"/>
<text text-anchor="start" x="172" y="-39" font-family="Helvetica,sans-Serif" font-size="10.00">solar_system::Settings</text>
<text text-anchor="middle" x="231" y="-28" font-family="Helvetica,sans-Serif" font-size="10.00">::defaultWindowOpacity</text>
</a>
</g>
</g>
<!-- Node2 -->
<g id="Node000002" class="node">
<title>Node2</title>
<g id="a_Node000002"><a xlink:href="tst__settings_8cpp.html#ad9d8c2ff30fae39b4ceba73773acf481" target="_top" xlink:title=" ">
<polygon fill="white" stroke="#666666" points="99.5,-67.5 28.5,-67.5 28.5,-48.5 99.5,-48.5 99.5,-67.5"/>
<text text-anchor="middle" x="64" y="-55.5" font-family="Helvetica,sans-Serif" font-size="10.00">TEST_CASE</text>
</a>
</g>
</g>
<!-- Node1&#45;&gt;Node2 -->
<g id="edge1_Node000001_Node000002" class="edge">
<title>Node1&#45;&gt;Node2</title>
<g id="a_edge1_Node000001_Node000002"><a xlink:title=" ">
<path fill="none" stroke="#63b8ff" d="M153.75,-46.17C134.92,-48.68 115.66,-51.25 99.91,-53.35"/>
<polygon fill="#63b8ff" stroke="#63b8ff" points="154.39,-49.61 163.84,-44.82 153.46,-42.67 154.39,-49.61"/>
</a>
</g>
</g>
<!-- Node3 -->
<g id="Node000003" class="node">
<title>Node3</title>
<g id="a_Node000003"><a xlink:href="classsolar__system_1_1Settings.html#ab6f18963cef2c4e46a034907cf936dfd" target="_top" xlink:title="Returns the current window opacity for the application.">
<polygon fill="white" stroke="#666666" points="128,-30 0,-30 0,0 128,0 128,-30"/>
<text text-anchor="start" x="8" y="-18" font-family="Helvetica,sans-Serif" font-size="10.00">solar_system::Settings</text>
<text text-anchor="middle" x="64" y="-7" font-family="Helvetica,sans-Serif" font-size="10.00">::windowOpacity</text>
</a>
</g>
</g>
<!-- Node1&#45;&gt;Node3 -->
<g id="edge2_Node000001_Node000003" class="edge">
<title>Node1&#45;&gt;Node3</title>
<g id="a_edge2_Node000001_Node000003"><a xlink:title=" ">
<path fill="none" stroke="#63b8ff" d="M153.84,-26.31C145.27,-25.22 136.61,-24.11 128.23,-23.05"/>
<polygon fill="#63b8ff" stroke="#63b8ff" points="153.48,-29.79 163.84,-27.58 154.36,-22.84 153.48,-29.79"/>
</a>
</g>
</g>
</g>
</svg>
