<?xml version="1.0" encoding="UTF-8" standalone="no"?>
<!DOCTYPE svg PUBLIC "-//W3C//DTD SVG 1.1//EN"
 "http://www.w3.org/Graphics/SVG/1.1/DTD/svg11.dtd">
<!-- Generated by graphviz version 2.43.0 (0)
 -->
<!-- Title: solar_system::Settings::defaultLanguage Pages: 1 -->
<svg width="407pt" height="124pt"
 viewBox="0.00 0.00 407.00 123.50" xmlns="http://www.w3.org/2000/svg" xmlns:xlink="http://www.w3.org/1999/xlink">
<g id="graph0" class="graph" transform="scale(1 1) rotate(0) translate(4 119.5)">
<title>solar_system::Settings::defaultLanguage</title>
<!-- Node1 -->
<g id="Node000001" class="node">
<title>Node1</title>
<g id="a_Node000001"><a xlink:title="Returns the default language for the application.">
<polygon fill="#999999" stroke="#666666" points="399,-67.5 271,-67.5 271,-37.5 399,-37.5 399,-67.5"/>
<text text-anchor="start" x="279" y="-55.5" font-family="Helvetica,sans-Serif" font-size="10.00">solar_system::Settings</text>
<text text-anchor="middle" x="335" y="-44.5" font-family="Helvetica,sans-Serif" font-size="10.00">::defaultLanguage</text>
</a>
</g>
</g>
<!-- Node2 -->
<g id="Node000002" class="node">
<title>Node2</title>
<g id="a_Node000002"><a xlink:href="classsolar__system_1_1Settings.html#add0451262dbf6710943f19b65a1c26e6" target="_top" xlink:title="Returns the current language for the application.">
<polygon fill="white" stroke="#666666" points="235,-115.5 107,-115.5 107,-85.5 235,-85.5 235,-115.5"/>
<text text-anchor="start" x="115" y="-103.5" font-family="Helvetica,sans-Serif" font-size="10.00">solar_system::Settings</text>
<text text-anchor="middle" x="171" y="-92.5" font-family="Helvetica,sans-Serif" font-size="10.00">::language</text>
</a>
</g>
</g>
<!-- Node1&#45;&gt;Node2 -->
<g id="edge1_Node000001_Node000002" class="edge">
<title>Node1&#45;&gt;Node2</title>
<g id="a_edge1_Node000001_Node000002"><a xlink:title=" ">
<path fill="none" stroke="#63b8ff" d="M273.5,-70.43C256.75,-75.39 238.75,-80.72 222.63,-85.5"/>
<polygon fill="#63b8ff" stroke="#63b8ff" points="274.59,-73.75 283.19,-67.56 272.6,-67.04 274.59,-73.75"/>
</a>
</g>
</g>
<!-- Node3 -->
<g id="Node000003" class="node">
<title>Node3</title>
<g id="a_Node000003"><a xlink:href="classsolar__system_1_1Settings.html#a12b14fc1c66d460baca9c80574879334" target="_top" xlink:title="Sets the current language for the application.">
<polygon fill="white" stroke="#666666" points="235,-67.5 107,-67.5 107,-37.5 235,-37.5 235,-67.5"/>
<text text-anchor="start" x="115" y="-55.5" font-family="Helvetica,sans-Serif" font-size="10.00">solar_system::Settings</text>
<text text-anchor="middle" x="171" y="-44.5" font-family="Helvetica,sans-Serif" font-size="10.00">::setLanguage</text>
</a>
</g>
</g>
<!-- Node1&#45;&gt;Node3 -->
<g id="edge2_Node000001_Node000003" class="edge">
<title>Node1&#45;&gt;Node3</title>
<g id="a_edge2_Node000001_Node000003"><a xlink:title=" ">
<path fill="none" stroke="#63b8ff" d="M260.63,-52.5C252.14,-52.5 243.53,-52.5 235.19,-52.5"/>
<polygon fill="#63b8ff" stroke="#63b8ff" points="260.9,-56 270.9,-52.5 260.9,-49 260.9,-56"/>
</a>
</g>
</g>
<!-- Node5 -->
<g id="Node000005" class="node">
<title>Node5</title>
<g id="a_Node000005"><a xlink:href="tst__settings_8cpp.html#ad9d8c2ff30fae39b4ceba73773acf481" target="_top" xlink:title=" ">
<polygon fill="white" stroke="#666666" points="206.5,-19 135.5,-19 135.5,0 206.5,0 206.5,-19"/>
<text text-anchor="middle" x="171" y="-7" font-family="Helvetica,sans-Serif" font-size="10.00">TEST_CASE</text>
</a>
</g>
</g>
<!-- Node1&#45;&gt;Node5 -->
<g id="edge4_Node000001_Node000005" class="edge">
<title>Node1&#45;&gt;Node5</title>
<g id="a_edge4_Node000001_Node000005"><a xlink:title=" ">
<path fill="none" stroke="#63b8ff" d="M267.54,-34.86C246.65,-29.31 224.42,-23.42 206.67,-18.7"/>
<polygon fill="#63b8ff" stroke="#63b8ff" points="266.78,-38.28 277.34,-37.46 268.57,-31.51 266.78,-38.28"/>
</a>
</g>
</g>
<!-- Node4 -->
<g id="Node000004" class="node">
<title>Node4</title>
<g id="a_Node000004"><a xlink:href="tst__settings_8cpp.html#a5c04d16a5a907a0efde133b34787f356" target="_top" xlink:title=" ">
<polygon fill="white" stroke="#666666" points="71,-62 0,-62 0,-43 71,-43 71,-62"/>
<text text-anchor="middle" x="35.5" y="-50" font-family="Helvetica,sans-Serif" font-size="10.00">TEST_CASE</text>
</a>
</g>
</g>
<!-- Node3&#45;&gt;Node4 -->
<g id="edge3_Node000003_Node000004" class="edge">
<title>Node3&#45;&gt;Node4</title>
<g id="a_edge3_Node000003_Node000004"><a xlink:title=" ">
<path fill="none" stroke="#63b8ff" d="M96.71,-52.5C87.82,-52.5 79.09,-52.5 71.16,-52.5"/>
<polygon fill="#63b8ff" stroke="#63b8ff" points="96.77,-56 106.77,-52.5 96.77,-49 96.77,-56"/>
</a>
</g>
</g>
</g>
</svg>
