<?xml version="1.0" encoding="UTF-8" standalone="no"?>
<!DOCTYPE svg PUBLIC "-//W3C//DTD SVG 1.1//EN"
 "http://www.w3.org/Graphics/SVG/1.1/DTD/svg11.dtd">
<!-- Generated by graphviz version 2.43.0 (0)
 -->
<!-- Title: solar_system::Settings::defaultQuitShortcut Pages: 1 -->
<svg width="407pt" height="162pt"
 viewBox="0.00 0.00 407.00 161.50" xmlns="http://www.w3.org/2000/svg" xmlns:xlink="http://www.w3.org/1999/xlink">
<g id="graph0" class="graph" transform="scale(1 1) rotate(0) translate(4 157.5)">
<title>solar_system::Settings::defaultQuitShortcut</title>
<!-- Node1 -->
<g id="Node000001" class="node">
<title>Node1</title>
<g id="a_Node000001"><a xlink:title="Returns the default quit shortcut for the application.">
<polygon fill="#999999" stroke="#666666" points="399,-83.5 271,-83.5 271,-53.5 399,-53.5 399,-83.5"/>
<text text-anchor="start" x="279" y="-71.5" font-family="Helvetica,sans-Serif" font-size="10.00">solar_system::Settings</text>
<text text-anchor="middle" x="335" y="-60.5" font-family="Helvetica,sans-Serif" font-size="10.00">::defaultQuitShortcut</text>
</a>
</g>
</g>
<!-- Node2 -->
<g id="Node000002" class="node">
<title>Node2</title>
<g id="a_Node000002"><a xlink:href="classsolar__system_1_1Settings.html#a16defee5ad9824abefdaba498ec0d960" target="_top" xlink:title="Returns the current quit shortcut for the application.">
<polygon fill="white" stroke="#666666" points="235,-153.5 107,-153.5 107,-123.5 235,-123.5 235,-153.5"/>
<text text-anchor="start" x="115" y="-141.5" font-family="Helvetica,sans-Serif" font-size="10.00">solar_system::Settings</text>
<text text-anchor="middle" x="171" y="-130.5" font-family="Helvetica,sans-Serif" font-size="10.00">::quitShortcut</text>
</a>
</g>
</g>
<!-- Node1&#45;&gt;Node2 -->
<g id="edge1_Node000001_Node000002" class="edge">
<title>Node1&#45;&gt;Node2</title>
<g id="a_edge1_Node000001_Node000002"><a xlink:title=" ">
<path fill="none" stroke="#63b8ff" d="M293.53,-88.1C275.71,-96.52 254.45,-106.29 235,-114.5 227.88,-117.5 220.25,-120.55 212.84,-123.43"/>
<polygon fill="#63b8ff" stroke="#63b8ff" points="295.51,-91.03 303.04,-83.57 292.51,-84.71 295.51,-91.03"/>
</a>
</g>
</g>
<!-- Node3 -->
<g id="Node000003" class="node">
<title>Node3</title>
<g id="a_Node000003"><a xlink:href="classsolar__system_1_1Settings.html#a2254d2cd3f6a543d9c34b62cd70f0152" target="_top" xlink:title="Sets the current quit shortcut for the application.">
<polygon fill="white" stroke="#666666" points="235,-105.5 107,-105.5 107,-75.5 235,-75.5 235,-105.5"/>
<text text-anchor="start" x="115" y="-93.5" font-family="Helvetica,sans-Serif" font-size="10.00">solar_system::Settings</text>
<text text-anchor="middle" x="171" y="-82.5" font-family="Helvetica,sans-Serif" font-size="10.00">::setQuitShortcut</text>
</a>
</g>
</g>
<!-- Node1&#45;&gt;Node3 -->
<g id="edge2_Node000001_Node000003" class="edge">
<title>Node1&#45;&gt;Node3</title>
<g id="a_edge2_Node000001_Node000003"><a xlink:title=" ">
<path fill="none" stroke="#63b8ff" d="M260.91,-78.43C252.32,-79.59 243.62,-80.77 235.19,-81.92"/>
<polygon fill="#63b8ff" stroke="#63b8ff" points="261.46,-81.88 270.9,-77.07 260.52,-74.95 261.46,-81.88"/>
</a>
</g>
</g>
<!-- Node5 -->
<g id="Node000005" class="node">
<title>Node5</title>
<g id="a_Node000005"><a xlink:href="tst__settings_8cpp.html#a21102cab53cc05cb45a7ceda014091d7" target="_top" xlink:title=" ">
<polygon fill="white" stroke="#666666" points="71,-60 0,-60 0,-41 71,-41 71,-60"/>
<text text-anchor="middle" x="35.5" y="-48" font-family="Helvetica,sans-Serif" font-size="10.00">TEST_CASE</text>
</a>
</g>
</g>
<!-- Node1&#45;&gt;Node5 -->
<g id="edge6_Node000001_Node000005" class="edge">
<title>Node1&#45;&gt;Node5</title>
<g id="a_edge6_Node000001_Node000005"><a xlink:title=" ">
<path fill="none" stroke="#63b8ff" d="M260.67,-64.06C200.3,-60.41 117.4,-55.39 71.2,-52.6"/>
<polygon fill="#63b8ff" stroke="#63b8ff" points="260.71,-67.57 270.91,-64.68 261.14,-60.59 260.71,-67.57"/>
</a>
</g>
</g>
<!-- Node6 -->
<g id="Node000006" class="node">
<title>Node6</title>
<g id="a_Node000006"><a xlink:href="tst__settings_8cpp.html#ad9d8c2ff30fae39b4ceba73773acf481" target="_top" xlink:title=" ">
<polygon fill="white" stroke="#666666" points="206.5,-19 135.5,-19 135.5,0 206.5,0 206.5,-19"/>
<text text-anchor="middle" x="171" y="-7" font-family="Helvetica,sans-Serif" font-size="10.00">TEST_CASE</text>
</a>
</g>
</g>
<!-- Node1&#45;&gt;Node6 -->
<g id="edge5_Node000001_Node000006" class="edge">
<title>Node1&#45;&gt;Node6</title>
<g id="a_edge5_Node000001_Node000006"><a xlink:title=" ">
<path fill="none" stroke="#63b8ff" d="M283.04,-49.94C254.99,-39.73 221.35,-27.47 198.5,-19.15"/>
<polygon fill="#63b8ff" stroke="#63b8ff" points="282.11,-53.33 292.7,-53.46 284.5,-46.75 282.11,-53.33"/>
</a>
</g>
</g>
<!-- Node4 -->
<g id="Node000004" class="node">
<title>Node4</title>
<g id="a_Node000004"><a xlink:href="tst__settings_8cpp.html#abbef4b32fa1bb7655438319bdba67165" target="_top" xlink:title=" ">
<polygon fill="white" stroke="#666666" points="71,-100 0,-100 0,-81 71,-81 71,-100"/>
<text text-anchor="middle" x="35.5" y="-88" font-family="Helvetica,sans-Serif" font-size="10.00">TEST_CASE</text>
</a>
</g>
</g>
<!-- Node3&#45;&gt;Node4 -->
<g id="edge3_Node000003_Node000004" class="edge">
<title>Node3&#45;&gt;Node4</title>
<g id="a_edge3_Node000003_Node000004"><a xlink:title=" ">
<path fill="none" stroke="#63b8ff" d="M96.71,-90.5C87.82,-90.5 79.09,-90.5 71.16,-90.5"/>
<polygon fill="#63b8ff" stroke="#63b8ff" points="96.77,-94 106.77,-90.5 96.77,-87 96.77,-94"/>
</a>
</g>
</g>
<!-- Node3&#45;&gt;Node5 -->
<g id="edge4_Node000003_Node000005" class="edge">
<title>Node3&#45;&gt;Node5</title>
<g id="a_edge4_Node000003_Node000005"><a xlink:title=" ">
<path fill="none" stroke="#63b8ff" d="M110.04,-72.53C95.63,-68.22 80.79,-63.77 68.26,-60.01"/>
<polygon fill="#63b8ff" stroke="#63b8ff" points="109.33,-75.97 119.91,-75.49 111.34,-69.27 109.33,-75.97"/>
</a>
</g>
</g>
</g>
</svg>
