<?xml version="1.0" encoding="UTF-8" standalone="no"?>
<!DOCTYPE svg PUBLIC "-//W3C//DTD SVG 1.1//EN"
 "http://www.w3.org/Graphics/SVG/1.1/DTD/svg11.dtd">
<!-- Generated by graphviz version 2.43.0 (0)
 -->
<!-- Title: solar_system::Settings::defaultOptionsShortcut Pages: 1 -->
<svg width="414pt" height="162pt"
 viewBox="0.00 0.00 414.00 161.50" xmlns="http://www.w3.org/2000/svg" xmlns:xlink="http://www.w3.org/1999/xlink">
<g id="graph0" class="graph" transform="scale(1 1) rotate(0) translate(4 157.5)">
<title>solar_system::Settings::defaultOptionsShortcut</title>
<!-- Node1 -->
<g id="Node000001" class="node">
<title>Node1</title>
<g id="a_Node000001"><a xlink:title="Returns the default options shortcut for the application.">
<polygon fill="#999999" stroke="#666666" points="406,-83.5 271,-83.5 271,-53.5 406,-53.5 406,-83.5"/>
<text text-anchor="start" x="279" y="-71.5" font-family="Helvetica,sans-Serif" font-size="10.00">solar_system::Settings</text>
<text text-anchor="middle" x="338.5" y="-60.5" font-family="Helvetica,sans-Serif" font-size="10.00">::defaultOptionsShortcut</text>
</a>
</g>
</g>
<!-- Node2 -->
<g id="Node000002" class="node">
<title>Node2</title>
<g id="a_Node000002"><a xlink:href="classsolar__system_1_1Settings.html#ae0a11d981c475dd027d3d31a40180e8f" target="_top" xlink:title="Returns the current options shortcut for the application.">
<polygon fill="white" stroke="#666666" points="235,-153.5 107,-153.5 107,-123.5 235,-123.5 235,-153.5"/>
<text text-anchor="start" x="115" y="-141.5" font-family="Helvetica,sans-Serif" font-size="10.00">solar_system::Settings</text>
<text text-anchor="middle" x="171" y="-130.5" font-family="Helvetica,sans-Serif" font-size="10.00">::optionsShortcut</text>
</a>
</g>
</g>
<!-- Node1&#45;&gt;Node2 -->
<g id="edge1_Node000001_Node000002" class="edge">
<title>Node1&#45;&gt;Node2</title>
<g id="a_edge1_Node000001_Node000002"><a xlink:title=" ">
<path fill="none" stroke="#63b8ff" d="M295.63,-87.95C277.15,-96.36 255.1,-106.17 235,-114.5 227.76,-117.5 219.99,-120.58 212.47,-123.48"/>
<polygon fill="#63b8ff" stroke="#63b8ff" points="297.3,-91.04 304.93,-83.69 294.38,-84.67 297.3,-91.04"/>
</a>
</g>
</g>
<!-- Node3 -->
<g id="Node000003" class="node">
<title>Node3</title>
<g id="a_Node000003"><a xlink:href="classsolar__system_1_1Settings.html#a1c3beec849803d6babfaf3cf72ff7457" target="_top" xlink:title="Sets the current options shortcut for the application.">
<polygon fill="white" stroke="#666666" points="235,-105.5 107,-105.5 107,-75.5 235,-75.5 235,-105.5"/>
<text text-anchor="start" x="115" y="-93.5" font-family="Helvetica,sans-Serif" font-size="10.00">solar_system::Settings</text>
<text text-anchor="middle" x="171" y="-82.5" font-family="Helvetica,sans-Serif" font-size="10.00">::setOptionsShortcut</text>
</a>
</g>
</g>
<!-- Node1&#45;&gt;Node3 -->
<g id="edge2_Node000001_Node000003" class="edge">
<title>Node1&#45;&gt;Node3</title>
<g id="a_edge2_Node000001_Node000003"><a xlink:title=" ">
<path fill="none" stroke="#63b8ff" d="M260.66,-78.71C252.09,-79.85 243.44,-81 235.07,-82.12"/>
<polygon fill="#63b8ff" stroke="#63b8ff" points="261.21,-82.17 270.66,-77.38 260.29,-75.23 261.21,-82.17"/>
</a>
</g>
</g>
<!-- Node5 -->
<g id="Node000005" class="node">
<title>Node5</title>
<g id="a_Node000005"><a xlink:href="tst__settings_8cpp.html#a21102cab53cc05cb45a7ceda014091d7" target="_top" xlink:title=" ">
<polygon fill="white" stroke="#666666" points="71,-60 0,-60 0,-41 71,-41 71,-60"/>
<text text-anchor="middle" x="35.5" y="-48" font-family="Helvetica,sans-Serif" font-size="10.00">TEST_CASE</text>
</a>
</g>
</g>
<!-- Node1&#45;&gt;Node5 -->
<g id="edge6_Node000001_Node000005" class="edge">
<title>Node1&#45;&gt;Node5</title>
<g id="a_edge6_Node000001_Node000005"><a xlink:title=" ">
<path fill="none" stroke="#63b8ff" d="M260.35,-63.89C199.41,-60.24 117.24,-55.33 71.3,-52.58"/>
<polygon fill="#63b8ff" stroke="#63b8ff" points="260.51,-67.4 270.7,-64.51 260.93,-60.41 260.51,-67.4"/>
</a>
</g>
</g>
<!-- Node6 -->
<g id="Node000006" class="node">
<title>Node6</title>
<g id="a_Node000006"><a xlink:href="tst__settings_8cpp.html#ad9d8c2ff30fae39b4ceba73773acf481" target="_top" xlink:title=" ">
<polygon fill="white" stroke="#666666" points="206.5,-19 135.5,-19 135.5,0 206.5,0 206.5,-19"/>
<text text-anchor="middle" x="171" y="-7" font-family="Helvetica,sans-Serif" font-size="10.00">TEST_CASE</text>
</a>
</g>
</g>
<!-- Node1&#45;&gt;Node6 -->
<g id="edge5_Node000001_Node000006" class="edge">
<title>Node1&#45;&gt;Node6</title>
<g id="a_edge5_Node000001_Node000006"><a xlink:title=" ">
<path fill="none" stroke="#63b8ff" d="M285.82,-50.07C257.09,-39.83 222.52,-27.51 199.07,-19.15"/>
<polygon fill="#63b8ff" stroke="#63b8ff" points="284.71,-53.4 295.31,-53.46 287.07,-46.8 284.71,-53.4"/>
</a>
</g>
</g>
<!-- Node4 -->
<g id="Node000004" class="node">
<title>Node4</title>
<g id="a_Node000004"><a xlink:href="tst__settings_8cpp.html#ad7d06a20b0bcf6053d09ee6efe4ddade" target="_top" xlink:title=" ">
<polygon fill="white" stroke="#666666" points="71,-100 0,-100 0,-81 71,-81 71,-100"/>
<text text-anchor="middle" x="35.5" y="-88" font-family="Helvetica,sans-Serif" font-size="10.00">TEST_CASE</text>
</a>
</g>
</g>
<!-- Node3&#45;&gt;Node4 -->
<g id="edge3_Node000003_Node000004" class="edge">
<title>Node3&#45;&gt;Node4</title>
<g id="a_edge3_Node000003_Node000004"><a xlink:title=" ">
<path fill="none" stroke="#63b8ff" d="M96.71,-90.5C87.82,-90.5 79.09,-90.5 71.16,-90.5"/>
<polygon fill="#63b8ff" stroke="#63b8ff" points="96.77,-94 106.77,-90.5 96.77,-87 96.77,-94"/>
</a>
</g>
</g>
<!-- Node3&#45;&gt;Node5 -->
<g id="edge4_Node000003_Node000005" class="edge">
<title>Node3&#45;&gt;Node5</title>
<g id="a_edge4_Node000003_Node000005"><a xlink:title=" ">
<path fill="none" stroke="#63b8ff" d="M110.04,-72.53C95.63,-68.22 80.79,-63.77 68.26,-60.01"/>
<polygon fill="#63b8ff" stroke="#63b8ff" points="109.33,-75.97 119.91,-75.49 111.34,-69.27 109.33,-75.97"/>
</a>
</g>
</g>
</g>
</svg>
