<?xml version="1.0" encoding="UTF-8" standalone="no"?>
<!DOCTYPE svg PUBLIC "-//W3C//DTD SVG 1.1//EN"
 "http://www.w3.org/Graphics/SVG/1.1/DTD/svg11.dtd">
<!-- Generated by graphviz version 2.43.0 (0)
 -->
<!-- Title: solar_system::Settings::defaultFullScreenShortcut Pages: 1 -->
<svg width="320pt" height="86pt"
 viewBox="0.00 0.00 320.00 86.00" xmlns="http://www.w3.org/2000/svg" xmlns:xlink="http://www.w3.org/1999/xlink">
<g id="graph0" class="graph" transform="scale(1 1) rotate(0) translate(4 82)">
<title>solar_system::Settings::defaultFullScreenShortcut</title>
<!-- Node1 -->
<g id="Node000001" class="node">
<title>Node1</title>
<g id="a_Node000001"><a xlink:title="Returns the default full screen shortcut for the application.">
<polygon fill="#999999" stroke="#666666" points="312,-54 164,-54 164,-24 312,-24 312,-54"/>
<text text-anchor="start" x="172" y="-42" font-family="Helvetica,sans-Serif" font-size="10.00">solar_system::Settings</text>
<text text-anchor="middle" x="238" y="-31" font-family="Helvetica,sans-Serif" font-size="10.00">::defaultFullScreenShortcut</text>
</a>
</g>
</g>
<!-- Node2 -->
<g id="Node000002" class="node">
<title>Node2</title>
<g id="a_Node000002"><a xlink:href="classsolar__system_1_1Settings.html#a6288beec61d37b92a5882ce60b98c35a" target="_top" xlink:title="Returns the current full screen shortcut for the application.">
<polygon fill="white" stroke="#666666" points="128,-78 0,-78 0,-48 128,-48 128,-78"/>
<text text-anchor="start" x="8" y="-66" font-family="Helvetica,sans-Serif" font-size="10.00">solar_system::Settings</text>
<text text-anchor="middle" x="64" y="-55" font-family="Helvetica,sans-Serif" font-size="10.00">::fullScreenShortcut</text>
</a>
</g>
</g>
<!-- Node1&#45;&gt;Node2 -->
<g id="edge1_Node000001_Node000002" class="edge">
<title>Node1&#45;&gt;Node2</title>
<g id="a_edge1_Node000001_Node000002"><a xlink:title=" ">
<path fill="none" stroke="#63b8ff" d="M153.56,-50.64C145.02,-51.83 136.44,-53.03 128.17,-54.19"/>
<polygon fill="#63b8ff" stroke="#63b8ff" points="154.14,-54.1 163.56,-49.25 153.17,-47.16 154.14,-54.1"/>
</a>
</g>
</g>
<!-- Node3 -->
<g id="Node000003" class="node">
<title>Node3</title>
<g id="a_Node000003"><a xlink:href="classsolar__system_1_1Settings.html#a5412155812fc3d8bd4c493e5e50e8b4b" target="_top" xlink:title="Sets the current full screen shortcut for the application.">
<polygon fill="white" stroke="#666666" points="128,-30 0,-30 0,0 128,0 128,-30"/>
<text text-anchor="start" x="8" y="-18" font-family="Helvetica,sans-Serif" font-size="10.00">solar_system::Settings</text>
<text text-anchor="middle" x="64" y="-7" font-family="Helvetica,sans-Serif" font-size="10.00">::setFullScreenShortcut</text>
</a>
</g>
</g>
<!-- Node1&#45;&gt;Node3 -->
<g id="edge2_Node000001_Node000003" class="edge">
<title>Node1&#45;&gt;Node3</title>
<g id="a_edge2_Node000001_Node000003"><a xlink:title=" ">
<path fill="none" stroke="#63b8ff" d="M153.56,-27.36C145.02,-26.17 136.44,-24.97 128.17,-23.81"/>
<polygon fill="#63b8ff" stroke="#63b8ff" points="153.17,-30.84 163.56,-28.75 154.14,-23.9 153.17,-30.84"/>
</a>
</g>
</g>
</g>
</svg>
