<?xml version="1.0" encoding="UTF-8" standalone="no"?>
<!DOCTYPE svg PUBLIC "-//W3C//DTD SVG 1.1//EN"
 "http://www.w3.org/Graphics/SVG/1.1/DTD/svg11.dtd">
<!-- Generated by graphviz version 2.43.0 (0)
 -->
<!-- Title: solar_system::Settings::windowOpacityChanged Pages: 1 -->
<svg width="419pt" height="60pt"
 viewBox="0.00 0.00 419.00 60.00" xmlns="http://www.w3.org/2000/svg" xmlns:xlink="http://www.w3.org/1999/xlink">
<g id="graph0" class="graph" transform="scale(1 1) rotate(0) translate(4 56)">
<title>solar_system::Settings::windowOpacityChanged</title>
<!-- Node1 -->
<g id="Node000001" class="node">
<title>Node1</title>
<g id="a_Node000001"><a xlink:title="Emitted when the window opacity is changed.">
<polygon fill="#999999" stroke="#666666" points="411,-30 271,-30 271,0 411,0 411,-30"/>
<text text-anchor="start" x="279" y="-18" font-family="Helvetica,sans-Serif" font-size="10.00">solar_system::Settings</text>
<text text-anchor="middle" x="341" y="-7" font-family="Helvetica,sans-Serif" font-size="10.00">::windowOpacityChanged</text>
</a>
</g>
</g>
<!-- Node2 -->
<g id="Node000002" class="node">
<title>Node2</title>
<g id="a_Node000002"><a xlink:href="classsolar__system_1_1Settings.html#acf9d396d9fb203641d3efdd09f463417" target="_top" xlink:title="Sets the current window opacity for the application.">
<polygon fill="white" stroke="#666666" points="235,-52 107,-52 107,-22 235,-22 235,-52"/>
<text text-anchor="start" x="115" y="-40" font-family="Helvetica,sans-Serif" font-size="10.00">solar_system::Settings</text>
<text text-anchor="middle" x="171" y="-29" font-family="Helvetica,sans-Serif" font-size="10.00">::setWindowOpacity</text>
</a>
</g>
</g>
<!-- Node1&#45;&gt;Node2 -->
<g id="edge1_Node000001_Node000002" class="edge">
<title>Node1&#45;&gt;Node2</title>
<g id="a_edge1_Node000001_Node000002"><a xlink:title=" ">
<path fill="none" stroke="#63b8ff" d="M260.71,-25.38C252.16,-26.5 243.54,-27.63 235.22,-28.72"/>
<polygon fill="#63b8ff" stroke="#63b8ff" points="261.24,-28.84 270.7,-24.08 260.33,-21.9 261.24,-28.84"/>
</a>
</g>
</g>
<!-- Node3 -->
<g id="Node000003" class="node">
<title>Node3</title>
<g id="a_Node000003"><a xlink:href="tst__settings_8cpp.html#afa4944155863b5df223df38ab12eaadf" target="_top" xlink:title=" ">
<polygon fill="white" stroke="#666666" points="71,-24.5 0,-24.5 0,-5.5 71,-5.5 71,-24.5"/>
<text text-anchor="middle" x="35.5" y="-12.5" font-family="Helvetica,sans-Serif" font-size="10.00">TEST_CASE</text>
</a>
</g>
</g>
<!-- Node1&#45;&gt;Node3 -->
<g id="edge3_Node000001_Node000003" class="edge">
<title>Node1&#45;&gt;Node3</title>
<g id="a_edge3_Node000001_Node000003"><a xlink:title=" ">
<path fill="none" stroke="#63b8ff" d="M260.68,-13.33C252.01,-13.19 243.32,-13.08 235,-13 178.11,-12.46 163.88,-12.19 107,-13 95.37,-13.16 82.66,-13.48 71.28,-13.82"/>
<polygon fill="#63b8ff" stroke="#63b8ff" points="260.76,-16.83 270.81,-13.5 260.87,-9.83 260.76,-16.83"/>
</a>
</g>
</g>
<!-- Node2&#45;&gt;Node3 -->
<g id="edge2_Node000002_Node000003" class="edge">
<title>Node2&#45;&gt;Node3</title>
<g id="a_edge2_Node000002_Node000003"><a xlink:title=" ">
<path fill="none" stroke="#63b8ff" d="M96.71,-24.92C87.82,-23.46 79.09,-22.02 71.16,-20.71"/>
<polygon fill="#63b8ff" stroke="#63b8ff" points="96.33,-28.41 106.77,-26.58 97.47,-21.5 96.33,-28.41"/>
</a>
</g>
</g>
</g>
</svg>
