<?xml version="1.0" encoding="UTF-8" standalone="no"?>
<!DOCTYPE svg PUBLIC "-//W3C//DTD SVG 1.1//EN"
 "http://www.w3.org/Graphics/SVG/1.1/DTD/svg11.dtd">
<!-- Generated by graphviz version 2.43.0 (0)
 -->
<!-- Title: solar_system::Settings::optionsShortcutChanged Pages: 1 -->
<svg width="421pt" height="73pt"
 viewBox="0.00 0.00 421.00 72.50" xmlns="http://www.w3.org/2000/svg" xmlns:xlink="http://www.w3.org/1999/xlink">
<g id="graph0" class="graph" transform="scale(1 1) rotate(0) translate(4 68.5)">
<title>solar_system::Settings::optionsShortcutChanged</title>
<!-- Node1 -->
<g id="Node000001" class="node">
<title>Node1</title>
<g id="a_Node000001"><a xlink:title="Emitted when the options shortcut is changed.">
<polygon fill="#999999" stroke="#666666" points="413,-51 271,-51 271,-21 413,-21 413,-51"/>
<text text-anchor="start" x="279" y="-39" font-family="Helvetica,sans-Serif" font-size="10.00">solar_system::Settings</text>
<text text-anchor="middle" x="342" y="-28" font-family="Helvetica,sans-Serif" font-size="10.00">::optionsShortcutChanged</text>
</a>
</g>
</g>
<!-- Node2 -->
<g id="Node000002" class="node">
<title>Node2</title>
<g id="a_Node000002"><a xlink:href="classsolar__system_1_1Settings.html#a1c3beec849803d6babfaf3cf72ff7457" target="_top" xlink:title="Sets the current options shortcut for the application.">
<polygon fill="white" stroke="#666666" points="235,-30 107,-30 107,0 235,0 235,-30"/>
<text text-anchor="start" x="115" y="-18" font-family="Helvetica,sans-Serif" font-size="10.00">solar_system::Settings</text>
<text text-anchor="middle" x="171" y="-7" font-family="Helvetica,sans-Serif" font-size="10.00">::setOptionsShortcut</text>
</a>
</g>
</g>
<!-- Node1&#45;&gt;Node2 -->
<g id="edge1_Node000001_Node000002" class="edge">
<title>Node1&#45;&gt;Node2</title>
<g id="a_edge1_Node000001_Node000002"><a xlink:title=" ">
<path fill="none" stroke="#63b8ff" d="M260.78,-26.03C252.21,-24.97 243.57,-23.89 235.24,-22.86"/>
<polygon fill="#63b8ff" stroke="#63b8ff" points="260.44,-29.52 270.8,-27.28 261.3,-22.57 260.44,-29.52"/>
</a>
</g>
</g>
<!-- Node3 -->
<g id="Node000003" class="node">
<title>Node3</title>
<g id="a_Node000003"><a xlink:href="tst__settings_8cpp.html#ad7d06a20b0bcf6053d09ee6efe4ddade" target="_top" xlink:title=" ">
<polygon fill="white" stroke="#666666" points="71,-64.5 0,-64.5 0,-45.5 71,-45.5 71,-64.5"/>
<text text-anchor="middle" x="35.5" y="-52.5" font-family="Helvetica,sans-Serif" font-size="10.00">TEST_CASE</text>
</a>
</g>
</g>
<!-- Node1&#45;&gt;Node3 -->
<g id="edge4_Node000001_Node000003" class="edge">
<title>Node1&#45;&gt;Node3</title>
<g id="a_edge4_Node000001_Node000003"><a xlink:title=" ">
<path fill="none" stroke="#63b8ff" d="M260.66,-41.01C198.98,-44.86 116.85,-49.99 71.08,-52.84"/>
<polygon fill="#63b8ff" stroke="#63b8ff" points="261,-44.5 270.76,-40.38 260.56,-37.51 261,-44.5"/>
</a>
</g>
</g>
<!-- Node2&#45;&gt;Node3 -->
<g id="edge2_Node000002_Node000003" class="edge">
<title>Node2&#45;&gt;Node3</title>
<g id="a_edge2_Node000002_Node000003"><a xlink:title=" ">
<path fill="none" stroke="#63b8ff" d="M110.04,-32.97C95.63,-37.28 80.79,-41.73 68.26,-45.49"/>
<polygon fill="#63b8ff" stroke="#63b8ff" points="111.34,-36.23 119.91,-30.01 109.33,-29.53 111.34,-36.23"/>
</a>
</g>
</g>
<!-- Node4 -->
<g id="Node000004" class="node">
<title>Node4</title>
<g id="a_Node000004"><a xlink:href="tst__settings_8cpp.html#a21102cab53cc05cb45a7ceda014091d7" target="_top" xlink:title=" ">
<polygon fill="white" stroke="#666666" points="71,-24.5 0,-24.5 0,-5.5 71,-5.5 71,-24.5"/>
<text text-anchor="middle" x="35.5" y="-12.5" font-family="Helvetica,sans-Serif" font-size="10.00">TEST_CASE</text>
</a>
</g>
</g>
<!-- Node2&#45;&gt;Node4 -->
<g id="edge3_Node000002_Node000004" class="edge">
<title>Node2&#45;&gt;Node4</title>
<g id="a_edge3_Node000002_Node000004"><a xlink:title=" ">
<path fill="none" stroke="#63b8ff" d="M96.71,-15C87.82,-15 79.09,-15 71.16,-15"/>
<polygon fill="#63b8ff" stroke="#63b8ff" points="96.77,-18.5 106.77,-15 96.77,-11.5 96.77,-18.5"/>
</a>
</g>
</g>
</g>
</svg>
