<?xml version="1.0" encoding="UTF-8" standalone="no"?>
<!DOCTYPE svg PUBLIC "-//W3C//DTD SVG 1.1//EN"
 "http://www.w3.org/Graphics/SVG/1.1/DTD/svg11.dtd">
<!-- Generated by graphviz version 2.43.0 (0)
 -->
<!-- Title: main Pages: 1 -->
<svg width="249pt" height="76pt"
 viewBox="0.00 0.00 249.00 75.50" xmlns="http://www.w3.org/2000/svg" xmlns:xlink="http://www.w3.org/1999/xlink">
<g id="graph0" class="graph" transform="scale(1 1) rotate(0) translate(4 71.5)">
<title>main</title>
<!-- Node1 -->
<g id="Node000001" class="node">
<title>Node1</title>
<g id="a_Node000001"><a xlink:title=" ">
<polygon fill="#999999" stroke="#666666" points="41,-40 0,-40 0,-21 41,-21 41,-40"/>
<text text-anchor="middle" x="20.5" y="-28" font-family="Helvetica,sans-Serif" font-size="10.00">main</text>
</a>
</g>
</g>
<!-- Node2 -->
<g id="Node000002" class="node">
<title>Node2</title>
<g id="a_Node000002"><a xlink:href="classsolar__system_1_1Application.html#a6ec88097abf018bf1de8b306d6cdd9de" target="_top" xlink:title="Returns the QML Application Engine instance.">
<polygon fill="white" stroke="#666666" points="230.5,-67.5 87.5,-67.5 87.5,-37.5 230.5,-37.5 230.5,-67.5"/>
<text text-anchor="start" x="95.5" y="-55.5" font-family="Helvetica,sans-Serif" font-size="10.00">solar_system::Application</text>
<text text-anchor="middle" x="159" y="-44.5" font-family="Helvetica,sans-Serif" font-size="10.00">::qmlEngine</text>
</a>
</g>
</g>
<!-- Node1&#45;&gt;Node2 -->
<g id="edge1_Node000001_Node000002" class="edge">
<title>Node1&#45;&gt;Node2</title>
<g id="a_edge1_Node000001_Node000002"><a xlink:title=" ">
<path fill="none" stroke="#63b8ff" d="M41.06,-33.65C51.02,-35.26 63.88,-37.33 77.4,-39.51"/>
<polygon fill="#63b8ff" stroke="#63b8ff" points="76.91,-42.98 87.34,-41.11 78.02,-36.06 76.91,-42.98"/>
</a>
</g>
</g>
<!-- Node3 -->
<g id="Node000003" class="node">
<title>Node3</title>
<g id="a_Node000003"><a xlink:href="classsolar__system_1_1Application.html#a35fff58fe7676b0ff295c4c9c151e011" target="_top" xlink:title="Runs the application.">
<polygon fill="white" stroke="#666666" points="241,-19 77,-19 77,0 241,0 241,-19"/>
<text text-anchor="middle" x="159" y="-7" font-family="Helvetica,sans-Serif" font-size="10.00">solar_system::Application::run</text>
</a>
</g>
</g>
<!-- Node1&#45;&gt;Node3 -->
<g id="edge2_Node000001_Node000003" class="edge">
<title>Node1&#45;&gt;Node3</title>
<g id="a_edge2_Node000001_Node000003"><a xlink:title=" ">
<path fill="none" stroke="#63b8ff" d="M41.06,-27.49C53.08,-25.64 69.32,-23.14 85.86,-20.6"/>
<polygon fill="#63b8ff" stroke="#63b8ff" points="86.81,-23.99 96.16,-19.01 85.75,-17.07 86.81,-23.99"/>
</a>
</g>
</g>
</g>
</svg>
