<?xml version="1.0" encoding="UTF-8" standalone="no"?>
<!DOCTYPE svg PUBLIC "-//W3C//DTD SVG 1.1//EN"
 "http://www.w3.org/Graphics/SVG/1.1/DTD/svg11.dtd">
<!-- Generated by graphviz version 2.43.0 (0)
 -->
<!-- Title: src/main.cpp Pages: 1 -->
<svg width="502pt" height="192pt"
 viewBox="0.00 0.00 502.00 192.00" xmlns="http://www.w3.org/2000/svg" xmlns:xlink="http://www.w3.org/1999/xlink">
<g id="graph0" class="graph" transform="scale(1 1) rotate(0) translate(4 188)">
<title>src/main.cpp</title>
<!-- Node1 -->
<g id="Node000001" class="node">
<title>Node1</title>
<g id="a_Node000001"><a xlink:title=" ">
<polygon fill="#999999" stroke="#666666" points="197,-184 118,-184 118,-165 197,-165 197,-184"/>
<text text-anchor="middle" x="157.5" y="-172" font-family="Helvetica,sans-Serif" font-size="10.00">src/main.cpp</text>
</a>
</g>
</g>
<!-- Node2 -->
<g id="Node000002" class="node">
<title>Node2</title>
<g id="a_Node000002"><a xlink:title=" ">
<polygon fill="#e0e0e0" stroke="#999999" points="163,-129 0,-129 0,-110 163,-110 163,-129"/>
<text text-anchor="middle" x="81.5" y="-117" font-family="Helvetica,sans-Serif" font-size="10.00">QtQml/qqmlextensionplugin.h</text>
</a>
</g>
</g>
<!-- Node1&#45;&gt;Node2 -->
<g id="edge1_Node000001_Node000002" class="edge">
<title>Node1&#45;&gt;Node2</title>
<g id="a_edge1_Node000001_Node000002"><a xlink:title=" ">
<path fill="none" stroke="#63b8ff" d="M145.29,-164.98C133.72,-156.92 116.12,-144.65 102.34,-135.03"/>
<polygon fill="#63b8ff" stroke="#63b8ff" points="104.14,-132.02 93.93,-129.17 100.13,-137.76 104.14,-132.02"/>
</a>
</g>
</g>
<!-- Node3 -->
<g id="Node000003" class="node">
<title>Node3</title>
<g id="a_Node000003"><a xlink:href="application_8h.html" target="_top" xlink:title=" ">
<polygon fill="white" stroke="#666666" points="285.5,-129 181.5,-129 181.5,-110 285.5,-110 285.5,-129"/>
<text text-anchor="middle" x="233.5" y="-117" font-family="Helvetica,sans-Serif" font-size="10.00">core/application.h</text>
</a>
</g>
</g>
<!-- Node1&#45;&gt;Node3 -->
<g id="edge2_Node000001_Node000003" class="edge">
<title>Node1&#45;&gt;Node3</title>
<g id="a_edge2_Node000001_Node000003"><a xlink:title=" ">
<path fill="none" stroke="#63b8ff" d="M169.71,-164.98C181.28,-156.92 198.88,-144.65 212.66,-135.03"/>
<polygon fill="#63b8ff" stroke="#63b8ff" points="214.87,-137.76 221.07,-129.17 210.86,-132.02 214.87,-137.76"/>
</a>
</g>
</g>
<!-- Node4 -->
<g id="Node000004" class="node">
<title>Node4</title>
<g id="a_Node000004"><a xlink:title=" ">
<polygon fill="#e0e0e0" stroke="#999999" points="149,-74 54,-74 54,-55 149,-55 149,-74"/>
<text text-anchor="middle" x="101.5" y="-62" font-family="Helvetica,sans-Serif" font-size="10.00">QGuiApplication</text>
</a>
</g>
</g>
<!-- Node3&#45;&gt;Node4 -->
<g id="edge3_Node000003_Node000004" class="edge">
<title>Node3&#45;&gt;Node4</title>
<g id="a_edge3_Node000003_Node000004"><a xlink:title=" ">
<path fill="none" stroke="#63b8ff" d="M212.29,-109.98C190.77,-101.34 157.22,-87.87 132.67,-78.02"/>
<polygon fill="#63b8ff" stroke="#63b8ff" points="133.68,-74.65 123.09,-74.17 131.07,-81.14 133.68,-74.65"/>
</a>
</g>
</g>
<!-- Node5 -->
<g id="Node000005" class="node">
<title>Node5</title>
<g id="a_Node000005"><a xlink:title=" ">
<polygon fill="#e0e0e0" stroke="#999999" points="299.5,-74 167.5,-74 167.5,-55 299.5,-55 299.5,-74"/>
<text text-anchor="middle" x="233.5" y="-62" font-family="Helvetica,sans-Serif" font-size="10.00">QQmlApplicationEngine</text>
</a>
</g>
</g>
<!-- Node3&#45;&gt;Node5 -->
<g id="edge4_Node000003_Node000005" class="edge">
<title>Node3&#45;&gt;Node5</title>
<g id="a_edge4_Node000003_Node000005"><a xlink:title=" ">
<path fill="none" stroke="#63b8ff" d="M233.5,-109.75C233.5,-102.8 233.5,-92.85 233.5,-84.13"/>
<polygon fill="#63b8ff" stroke="#63b8ff" points="237,-84.09 233.5,-74.09 230,-84.09 237,-84.09"/>
</a>
</g>
</g>
<!-- Node6 -->
<g id="Node000006" class="node">
<title>Node6</title>
<g id="a_Node000006"><a xlink:href="settings_8h.html" target="_top" xlink:title=" ">
<polygon fill="white" stroke="#666666" points="383,-74 318,-74 318,-55 383,-55 383,-74"/>
<text text-anchor="middle" x="350.5" y="-62" font-family="Helvetica,sans-Serif" font-size="10.00">settings.h</text>
</a>
</g>
</g>
<!-- Node3&#45;&gt;Node6 -->
<g id="edge5_Node000003_Node000006" class="edge">
<title>Node3&#45;&gt;Node6</title>
<g id="a_edge5_Node000003_Node000006"><a xlink:title=" ">
<path fill="none" stroke="#63b8ff" d="M252.3,-109.98C271.12,-101.46 300.32,-88.23 322,-78.41"/>
<polygon fill="#63b8ff" stroke="#63b8ff" points="323.7,-81.48 331.36,-74.17 320.81,-75.11 323.7,-81.48"/>
</a>
</g>
</g>
<!-- Node7 -->
<g id="Node000007" class="node">
<title>Node7</title>
<g id="a_Node000007"><a xlink:title=" ">
<polygon fill="#e0e0e0" stroke="#999999" points="263,-19 166,-19 166,0 263,0 263,-19"/>
<text text-anchor="middle" x="214.5" y="-7" font-family="Helvetica,sans-Serif" font-size="10.00">qtmetamacros.h</text>
</a>
</g>
</g>
<!-- Node6&#45;&gt;Node7 -->
<g id="edge6_Node000006_Node000007" class="edge">
<title>Node6&#45;&gt;Node7</title>
<g id="a_edge6_Node000006_Node000007"><a xlink:title=" ">
<path fill="none" stroke="#63b8ff" d="M328.65,-54.98C306.38,-46.3 271.6,-32.75 246.28,-22.88"/>
<polygon fill="#63b8ff" stroke="#63b8ff" points="247.34,-19.54 236.75,-19.17 244.79,-26.06 247.34,-19.54"/>
</a>
</g>
</g>
<!-- Node8 -->
<g id="Node000008" class="node">
<title>Node8</title>
<g id="a_Node000008"><a xlink:title=" ">
<polygon fill="#e0e0e0" stroke="#999999" points="340,-19 281,-19 281,0 340,0 340,-19"/>
<text text-anchor="middle" x="310.5" y="-7" font-family="Helvetica,sans-Serif" font-size="10.00">qtypes.h</text>
</a>
</g>
</g>
<!-- Node6&#45;&gt;Node8 -->
<g id="edge7_Node000006_Node000008" class="edge">
<title>Node6&#45;&gt;Node8</title>
<g id="a_edge7_Node000006_Node000008"><a xlink:title=" ">
<path fill="none" stroke="#63b8ff" d="M343.89,-54.75C338.24,-47.26 329.96,-36.28 323.05,-27.13"/>
<polygon fill="#63b8ff" stroke="#63b8ff" points="325.8,-24.96 316.98,-19.09 320.21,-29.18 325.8,-24.96"/>
</a>
</g>
</g>
<!-- Node9 -->
<g id="Node000009" class="node">
<title>Node9</title>
<g id="a_Node000009"><a xlink:title=" ">
<polygon fill="#e0e0e0" stroke="#999999" points="422.5,-19 358.5,-19 358.5,0 422.5,0 422.5,-19"/>
<text text-anchor="middle" x="390.5" y="-7" font-family="Helvetica,sans-Serif" font-size="10.00">QSettings</text>
</a>
</g>
</g>
<!-- Node6&#45;&gt;Node9 -->
<g id="edge8_Node000006_Node000009" class="edge">
<title>Node6&#45;&gt;Node9</title>
<g id="a_edge8_Node000006_Node000009"><a xlink:title=" ">
<path fill="none" stroke="#63b8ff" d="M357.11,-54.75C362.76,-47.26 371.04,-36.28 377.95,-27.13"/>
<polygon fill="#63b8ff" stroke="#63b8ff" points="380.79,-29.18 384.02,-19.09 375.2,-24.96 380.79,-29.18"/>
</a>
</g>
</g>
<!-- Node10 -->
<g id="Node000010" class="node">
<title>Node10</title>
<g id="a_Node000010"><a xlink:title=" ">
<polygon fill="#e0e0e0" stroke="#999999" points="494,-19 441,-19 441,0 494,0 494,-19"/>
<text text-anchor="middle" x="467.5" y="-7" font-family="Helvetica,sans-Serif" font-size="10.00">QString</text>
</a>
</g>
</g>
<!-- Node6&#45;&gt;Node10 -->
<g id="edge9_Node000006_Node000010" class="edge">
<title>Node6&#45;&gt;Node10</title>
<g id="a_edge9_Node000006_Node000010"><a xlink:title=" ">
<path fill="none" stroke="#63b8ff" d="M369.3,-54.98C388.12,-46.46 417.32,-33.23 439,-23.41"/>
<polygon fill="#63b8ff" stroke="#63b8ff" points="440.7,-26.48 448.36,-19.17 437.81,-20.11 440.7,-26.48"/>
</a>
</g>
</g>
</g>
</svg>
