<?xml version="1.0" encoding="UTF-8" standalone="no"?>
<!DOCTYPE svg PUBLIC "-//W3C//DTD SVG 1.1//EN"
 "http://www.w3.org/Graphics/SVG/1.1/DTD/svg11.dtd">
<!-- Generated by graphviz version 2.43.0 (0)
 -->
<!-- Title: TEST_CASE Pages: 1 -->
<svg width="407pt" height="86pt"
 viewBox="0.00 0.00 407.00 86.00" xmlns="http://www.w3.org/2000/svg" xmlns:xlink="http://www.w3.org/1999/xlink">
<g id="graph0" class="graph" transform="scale(1 1) rotate(0) translate(4 82)">
<title>TEST_CASE</title>
<!-- Node1 -->
<g id="Node000001" class="node">
<title>Node1</title>
<g id="a_Node000001"><a xlink:title=" ">
<polygon fill="#999999" stroke="#666666" points="71,-50.5 0,-50.5 0,-31.5 71,-31.5 71,-50.5"/>
<text text-anchor="middle" x="35.5" y="-38.5" font-family="Helvetica,sans-Serif" font-size="10.00">TEST_CASE</text>
</a>
</g>
</g>
<!-- Node2 -->
<g id="Node000002" class="node">
<title>Node2</title>
<g id="a_Node000002"><a xlink:href="classsolar__system_1_1Settings.html#aa286b151692384fbc801b69565b6f14e" target="_top" xlink:title="Emitted when the quit shortcut is changed.">
<polygon fill="white" stroke="#666666" points="399,-78 271,-78 271,-48 399,-48 399,-78"/>
<text text-anchor="start" x="279" y="-66" font-family="Helvetica,sans-Serif" font-size="10.00">solar_system::Settings</text>
<text text-anchor="middle" x="335" y="-55" font-family="Helvetica,sans-Serif" font-size="10.00">::quitShortcutChanged</text>
</a>
</g>
</g>
<!-- Node1&#45;&gt;Node2 -->
<g id="edge1_Node000001_Node000002" class="edge">
<title>Node1&#45;&gt;Node2</title>
<g id="a_edge1_Node000001_Node000002"><a xlink:title=" ">
<path fill="none" stroke="#63b8ff" d="M71.21,-43.57C117.43,-46.98 200.36,-53.12 260.73,-57.58"/>
<polygon fill="#63b8ff" stroke="#63b8ff" points="260.74,-61.09 270.97,-58.34 261.26,-54.11 260.74,-61.09"/>
</a>
</g>
</g>
<!-- Node3 -->
<g id="Node000003" class="node">
<title>Node3</title>
<g id="a_Node000003"><a xlink:href="classsolar__system_1_1Settings.html#a2254d2cd3f6a543d9c34b62cd70f0152" target="_top" xlink:title="Sets the current quit shortcut for the application.">
<polygon fill="white" stroke="#666666" points="235,-35 107,-35 107,-5 235,-5 235,-35"/>
<text text-anchor="start" x="115" y="-23" font-family="Helvetica,sans-Serif" font-size="10.00">solar_system::Settings</text>
<text text-anchor="middle" x="171" y="-12" font-family="Helvetica,sans-Serif" font-size="10.00">::setQuitShortcut</text>
</a>
</g>
</g>
<!-- Node1&#45;&gt;Node3 -->
<g id="edge2_Node000001_Node000003" class="edge">
<title>Node1&#45;&gt;Node3</title>
<g id="a_edge2_Node000001_Node000003"><a xlink:title=" ">
<path fill="none" stroke="#63b8ff" d="M71.23,-35.54C79.2,-34.28 87.97,-32.9 96.89,-31.5"/>
<polygon fill="#63b8ff" stroke="#63b8ff" points="97.66,-34.92 106.99,-29.91 96.57,-28.01 97.66,-34.92"/>
</a>
</g>
</g>
<!-- Node3&#45;&gt;Node2 -->
<g id="edge4_Node000003_Node000002" class="edge">
<title>Node3&#45;&gt;Node2</title>
<g id="a_edge4_Node000003_Node000002"><a xlink:title=" ">
<path fill="none" stroke="#63b8ff" d="M228.66,-35.04C241.24,-38.38 254.68,-41.95 267.61,-45.38"/>
<polygon fill="#63b8ff" stroke="#63b8ff" points="266.81,-48.79 277.37,-47.97 268.6,-42.02 266.81,-48.79"/>
</a>
</g>
</g>
<!-- Node4 -->
<g id="Node000004" class="node">
<title>Node4</title>
<g id="a_Node000004"><a xlink:href="classsolar__system_1_1Settings.html#ad5175ca2db24119b24eb0f16cf634383" target="_top" xlink:title="Returns the default quit shortcut for the application.">
<polygon fill="white" stroke="#666666" points="399,-30 271,-30 271,0 399,0 399,-30"/>
<text text-anchor="start" x="279" y="-18" font-family="Helvetica,sans-Serif" font-size="10.00">solar_system::Settings</text>
<text text-anchor="middle" x="335" y="-7" font-family="Helvetica,sans-Serif" font-size="10.00">::defaultQuitShortcut</text>
</a>
</g>
</g>
<!-- Node3&#45;&gt;Node4 -->
<g id="edge3_Node000003_Node000004" class="edge">
<title>Node3&#45;&gt;Node4</title>
<g id="a_edge3_Node000003_Node000004"><a xlink:title=" ">
<path fill="none" stroke="#63b8ff" d="M235.1,-18.05C243.53,-17.79 252.23,-17.52 260.81,-17.26"/>
<polygon fill="#63b8ff" stroke="#63b8ff" points="260.92,-20.76 270.81,-16.95 260.71,-13.76 260.92,-20.76"/>
</a>
</g>
</g>
</g>
</svg>
