<?xml version="1.0" encoding="UTF-8" standalone="no"?>
<!DOCTYPE svg PUBLIC "-//W3C//DTD SVG 1.1//EN"
 "http://www.w3.org/Graphics/SVG/1.1/DTD/svg11.dtd">
<!-- Generated by graphviz version 2.43.0 (0)
 -->
<!-- Title: TEST_CASE Pages: 1 -->
<svg width="407pt" height="107pt"
 viewBox="0.00 0.00 407.00 107.00" xmlns="http://www.w3.org/2000/svg" xmlns:xlink="http://www.w3.org/1999/xlink">
<g id="graph0" class="graph" transform="scale(1 1) rotate(0) translate(4 103)">
<title>TEST_CASE</title>
<!-- Node1 -->
<g id="Node000001" class="node">
<title>Node1</title>
<g id="a_Node000001"><a xlink:title=" ">
<polygon fill="#999999" stroke="#666666" points="71,-72.5 0,-72.5 0,-53.5 71,-53.5 71,-72.5"/>
<text text-anchor="middle" x="35.5" y="-60.5" font-family="Helvetica,sans-Serif" font-size="10.00">TEST_CASE</text>
</a>
</g>
</g>
<!-- Node2 -->
<g id="Node000002" class="node">
<title>Node2</title>
<g id="a_Node000002"><a xlink:href="classsolar__system_1_1Settings.html#a94209e3e423b3cf962b5e094cc42aa7a" target="_top" xlink:title="Emitted when the FPS visibility is changed.">
<polygon fill="white" stroke="#666666" points="399,-99 271,-99 271,-69 399,-69 399,-99"/>
<text text-anchor="start" x="279" y="-87" font-family="Helvetica,sans-Serif" font-size="10.00">solar_system::Settings</text>
<text text-anchor="middle" x="335" y="-76" font-family="Helvetica,sans-Serif" font-size="10.00">::fpsVisibleChanged</text>
</a>
</g>
</g>
<!-- Node1&#45;&gt;Node2 -->
<g id="edge1_Node000001_Node000002" class="edge">
<title>Node1&#45;&gt;Node2</title>
<g id="a_edge1_Node000001_Node000002"><a xlink:title=" ">
<path fill="none" stroke="#63b8ff" d="M58.56,-72.6C72.22,-78.01 90.29,-84.23 107,-87 157.86,-95.42 216.02,-94.45 260.73,-91.49"/>
<polygon fill="#63b8ff" stroke="#63b8ff" points="261.2,-94.97 270.92,-90.77 260.7,-87.98 261.2,-94.97"/>
</a>
</g>
</g>
<!-- Node3 -->
<g id="Node000003" class="node">
<title>Node3</title>
<g id="a_Node000003"><a xlink:href="classsolar__system_1_1Settings.html#a9b9700382557b31f3734f6d91a3119b8" target="_top" xlink:title="Returns the current FPS visibility for the application.">
<polygon fill="white" stroke="#666666" points="235,-30 107,-30 107,0 235,0 235,-30"/>
<text text-anchor="start" x="115" y="-18" font-family="Helvetica,sans-Serif" font-size="10.00">solar_system::Settings</text>
<text text-anchor="middle" x="171" y="-7" font-family="Helvetica,sans-Serif" font-size="10.00">::isFpsVisible</text>
</a>
</g>
</g>
<!-- Node1&#45;&gt;Node3 -->
<g id="edge2_Node000001_Node000003" class="edge">
<title>Node1&#45;&gt;Node3</title>
<g id="a_edge2_Node000001_Node000003"><a xlink:title=" ">
<path fill="none" stroke="#63b8ff" d="M63.19,-53.4C79.08,-47.69 99.76,-40.25 118.69,-33.45"/>
<polygon fill="#63b8ff" stroke="#63b8ff" points="119.88,-36.74 128.11,-30.06 117.51,-30.15 119.88,-36.74"/>
</a>
</g>
</g>
<!-- Node5 -->
<g id="Node000005" class="node">
<title>Node5</title>
<g id="a_Node000005"><a xlink:href="classsolar__system_1_1Settings.html#ae7d1fbd1fbb2b916a20ea03d0b0e62e6" target="_top" xlink:title="Sets the current FPS visibility for the application.">
<polygon fill="white" stroke="#666666" points="235,-78 107,-78 107,-48 235,-48 235,-78"/>
<text text-anchor="start" x="115" y="-66" font-family="Helvetica,sans-Serif" font-size="10.00">solar_system::Settings</text>
<text text-anchor="middle" x="171" y="-55" font-family="Helvetica,sans-Serif" font-size="10.00">::setFpsVisible</text>
</a>
</g>
</g>
<!-- Node1&#45;&gt;Node5 -->
<g id="edge4_Node000001_Node000005" class="edge">
<title>Node1&#45;&gt;Node5</title>
<g id="a_edge4_Node000001_Node000005"><a xlink:title=" ">
<path fill="none" stroke="#63b8ff" d="M71.23,-63C79.2,-63 87.97,-63 96.89,-63"/>
<polygon fill="#63b8ff" stroke="#63b8ff" points="96.99,-66.5 106.99,-63 96.99,-59.5 96.99,-66.5"/>
</a>
</g>
</g>
<!-- Node4 -->
<g id="Node000004" class="node">
<title>Node4</title>
<g id="a_Node000004"><a xlink:href="classsolar__system_1_1Settings.html#a4367db49b1c928208b55652633b48826" target="_top" xlink:title="Returns the default FPS visibility for the application.">
<polygon fill="white" stroke="#666666" points="399,-41 271,-41 271,-11 399,-11 399,-41"/>
<text text-anchor="start" x="279" y="-29" font-family="Helvetica,sans-Serif" font-size="10.00">solar_system::Settings</text>
<text text-anchor="middle" x="335" y="-18" font-family="Helvetica,sans-Serif" font-size="10.00">::defaultFpsVisible</text>
</a>
</g>
</g>
<!-- Node3&#45;&gt;Node4 -->
<g id="edge3_Node000003_Node000004" class="edge">
<title>Node3&#45;&gt;Node4</title>
<g id="a_edge3_Node000003_Node000004"><a xlink:title=" ">
<path fill="none" stroke="#63b8ff" d="M235.1,-19.28C243.53,-19.86 252.23,-20.45 260.81,-21.03"/>
<polygon fill="#63b8ff" stroke="#63b8ff" points="260.59,-24.52 270.81,-21.71 261.07,-17.54 260.59,-24.52"/>
</a>
</g>
</g>
<!-- Node5&#45;&gt;Node2 -->
<g id="edge6_Node000005_Node000002" class="edge">
<title>Node5&#45;&gt;Node2</title>
<g id="a_edge6_Node000005_Node000002"><a xlink:title=" ">
<path fill="none" stroke="#63b8ff" d="M235.1,-71.18C243.53,-72.27 252.23,-73.4 260.81,-74.51"/>
<polygon fill="#63b8ff" stroke="#63b8ff" points="260.44,-77.99 270.81,-75.81 261.34,-71.05 260.44,-77.99"/>
</a>
</g>
</g>
<!-- Node5&#45;&gt;Node4 -->
<g id="edge5_Node000005_Node000004" class="edge">
<title>Node5&#45;&gt;Node4</title>
<g id="a_edge5_Node000005_Node000004"><a xlink:title=" ">
<path fill="none" stroke="#63b8ff" d="M235.1,-48.59C243.53,-46.66 252.23,-44.68 260.81,-42.72"/>
<polygon fill="#63b8ff" stroke="#63b8ff" points="261.84,-46.07 270.81,-40.43 260.28,-39.25 261.84,-46.07"/>
</a>
</g>
</g>
</g>
</svg>
