<?xml version="1.0" encoding="UTF-8" standalone="no"?>
<!DOCTYPE svg PUBLIC "-//W3C//DTD SVG 1.1//EN"
 "http://www.w3.org/Graphics/SVG/1.1/DTD/svg11.dtd">
<!-- Generated by graphviz version 2.43.0 (0)
 -->
<!-- Title: TEST_CASE Pages: 1 -->
<svg width="421pt" height="86pt"
 viewBox="0.00 0.00 421.00 86.00" xmlns="http://www.w3.org/2000/svg" xmlns:xlink="http://www.w3.org/1999/xlink">
<g id="graph0" class="graph" transform="scale(1 1) rotate(0) translate(4 82)">
<title>TEST_CASE</title>
<!-- Node1 -->
<g id="Node000001" class="node">
<title>Node1</title>
<g id="a_Node000001"><a xlink:title=" ">
<polygon fill="#999999" stroke="#666666" points="71,-50.5 0,-50.5 0,-31.5 71,-31.5 71,-50.5"/>
<text text-anchor="middle" x="35.5" y="-38.5" font-family="Helvetica,sans-Serif" font-size="10.00">TEST_CASE</text>
</a>
</g>
</g>
<!-- Node2 -->
<g id="Node000002" class="node">
<title>Node2</title>
<g id="a_Node000002"><a xlink:href="classsolar__system_1_1Settings.html#a16f10e8241d57ea76d74d53cf1836dcf" target="_top" xlink:title="Emitted when the options shortcut is changed.">
<polygon fill="white" stroke="#666666" points="413,-78 271,-78 271,-48 413,-48 413,-78"/>
<text text-anchor="start" x="279" y="-66" font-family="Helvetica,sans-Serif" font-size="10.00">solar_system::Settings</text>
<text text-anchor="middle" x="342" y="-55" font-family="Helvetica,sans-Serif" font-size="10.00">::optionsShortcutChanged</text>
</a>
</g>
</g>
<!-- Node1&#45;&gt;Node2 -->
<g id="edge1_Node000001_Node000002" class="edge">
<title>Node1&#45;&gt;Node2</title>
<g id="a_edge1_Node000001_Node000002"><a xlink:title=" ">
<path fill="none" stroke="#63b8ff" d="M71.13,-43.5C116.98,-46.81 199.21,-52.76 260.89,-57.21"/>
<polygon fill="#63b8ff" stroke="#63b8ff" points="260.77,-60.71 270.99,-57.94 261.27,-53.73 260.77,-60.71"/>
</a>
</g>
</g>
<!-- Node3 -->
<g id="Node000003" class="node">
<title>Node3</title>
<g id="a_Node000003"><a xlink:href="classsolar__system_1_1Settings.html#a1c3beec849803d6babfaf3cf72ff7457" target="_top" xlink:title="Sets the current options shortcut for the application.">
<polygon fill="white" stroke="#666666" points="235,-35 107,-35 107,-5 235,-5 235,-35"/>
<text text-anchor="start" x="115" y="-23" font-family="Helvetica,sans-Serif" font-size="10.00">solar_system::Settings</text>
<text text-anchor="middle" x="171" y="-12" font-family="Helvetica,sans-Serif" font-size="10.00">::setOptionsShortcut</text>
</a>
</g>
</g>
<!-- Node1&#45;&gt;Node3 -->
<g id="edge2_Node000001_Node000003" class="edge">
<title>Node1&#45;&gt;Node3</title>
<g id="a_edge2_Node000001_Node000003"><a xlink:title=" ">
<path fill="none" stroke="#63b8ff" d="M71.23,-35.54C79.2,-34.28 87.97,-32.9 96.89,-31.5"/>
<polygon fill="#63b8ff" stroke="#63b8ff" points="97.66,-34.92 106.99,-29.91 96.57,-28.01 97.66,-34.92"/>
</a>
</g>
</g>
<!-- Node3&#45;&gt;Node2 -->
<g id="edge4_Node000003_Node000002" class="edge">
<title>Node3&#45;&gt;Node2</title>
<g id="a_edge4_Node000003_Node000002"><a xlink:title=" ">
<path fill="none" stroke="#63b8ff" d="M231.11,-35.04C244.36,-38.41 258.53,-42.02 272.14,-45.48"/>
<polygon fill="#63b8ff" stroke="#63b8ff" points="271.37,-48.9 281.93,-47.97 273.1,-42.11 271.37,-48.9"/>
</a>
</g>
</g>
<!-- Node4 -->
<g id="Node000004" class="node">
<title>Node4</title>
<g id="a_Node000004"><a xlink:href="classsolar__system_1_1Settings.html#a129d53e02ee19302cd81c6a6b453201b" target="_top" xlink:title="Returns the default options shortcut for the application.">
<polygon fill="white" stroke="#666666" points="409.5,-30 274.5,-30 274.5,0 409.5,0 409.5,-30"/>
<text text-anchor="start" x="282.5" y="-18" font-family="Helvetica,sans-Serif" font-size="10.00">solar_system::Settings</text>
<text text-anchor="middle" x="342" y="-7" font-family="Helvetica,sans-Serif" font-size="10.00">::defaultOptionsShortcut</text>
</a>
</g>
</g>
<!-- Node3&#45;&gt;Node4 -->
<g id="edge3_Node000003_Node000004" class="edge">
<title>Node3&#45;&gt;Node4</title>
<g id="a_edge3_Node000003_Node000004"><a xlink:title=" ">
<path fill="none" stroke="#63b8ff" d="M235.41,-18.12C244.86,-17.84 254.69,-17.55 264.38,-17.27"/>
<polygon fill="#63b8ff" stroke="#63b8ff" points="264.52,-20.76 274.41,-16.97 264.31,-13.77 264.52,-20.76"/>
</a>
</g>
</g>
</g>
</svg>
