<?xml version="1.0" encoding="UTF-8" standalone="no"?>
<!DOCTYPE svg PUBLIC "-//W3C//DTD SVG 1.1//EN"
 "http://www.w3.org/Graphics/SVG/1.1/DTD/svg11.dtd">
<!-- Generated by graphviz version 2.43.0 (0)
 -->
<!-- Title: TEST_CASE Pages: 1 -->
<svg width="451pt" height="308pt"
 viewBox="0.00 0.00 451.00 308.00" xmlns="http://www.w3.org/2000/svg" xmlns:xlink="http://www.w3.org/1999/xlink">
<g id="graph0" class="graph" transform="scale(1 1) rotate(0) translate(4 304)">
<title>TEST_CASE</title>
<!-- Node1 -->
<g id="Node000001" class="node">
<title>Node1</title>
<g id="a_Node000001"><a xlink:title=" ">
<polygon fill="#999999" stroke="#666666" points="71,-165.5 0,-165.5 0,-146.5 71,-146.5 71,-165.5"/>
<text text-anchor="middle" x="35.5" y="-153.5" font-family="Helvetica,sans-Serif" font-size="10.00">TEST_CASE</text>
</a>
</g>
</g>
<!-- Node2 -->
<g id="Node000002" class="node">
<title>Node2</title>
<g id="a_Node000002"><a xlink:href="classsolar__system_1_1Settings.html#acc50bcff4bdb3d1f87abb9ffa60baeea" target="_top" xlink:title="Returns the default full screen shortcut for the application.">
<polygon fill="white" stroke="#666666" points="439.5,-300 291.5,-300 291.5,-270 439.5,-270 439.5,-300"/>
<text text-anchor="start" x="299.5" y="-288" font-family="Helvetica,sans-Serif" font-size="10.00">solar_system::Settings</text>
<text text-anchor="middle" x="365.5" y="-277" font-family="Helvetica,sans-Serif" font-size="10.00">::defaultFullScreenShortcut</text>
</a>
</g>
</g>
<!-- Node1&#45;&gt;Node2 -->
<g id="edge1_Node000001_Node000002" class="edge">
<title>Node1&#45;&gt;Node2</title>
<g id="a_edge1_Node000001_Node000002"><a xlink:title=" ">
<path fill="none" stroke="#63b8ff" d="M39.44,-165.82C46.71,-188.16 67.83,-242.67 107,-266 159.01,-296.98 227.8,-300.56 281.2,-297.03"/>
<polygon fill="#63b8ff" stroke="#63b8ff" points="281.62,-300.51 291.32,-296.27 281.09,-293.53 281.62,-300.51"/>
</a>
</g>
</g>
<!-- Node3 -->
<g id="Node000003" class="node">
<title>Node3</title>
<g id="a_Node000003"><a xlink:href="classsolar__system_1_1Settings.html#a129d53e02ee19302cd81c6a6b453201b" target="_top" xlink:title="Returns the default options shortcut for the application.">
<polygon fill="white" stroke="#666666" points="433,-189 298,-189 298,-159 433,-159 433,-189"/>
<text text-anchor="start" x="306" y="-177" font-family="Helvetica,sans-Serif" font-size="10.00">solar_system::Settings</text>
<text text-anchor="middle" x="365.5" y="-166" font-family="Helvetica,sans-Serif" font-size="10.00">::defaultOptionsShortcut</text>
</a>
</g>
</g>
<!-- Node1&#45;&gt;Node3 -->
<g id="edge2_Node000001_Node000003" class="edge">
<title>Node1&#45;&gt;Node3</title>
<g id="a_edge2_Node000001_Node000003"><a xlink:title=" ">
<path fill="none" stroke="#63b8ff" d="M58.56,-165.6C72.22,-171.01 90.29,-177.23 107,-180 167.18,-189.96 236.33,-187.6 287.81,-183.23"/>
<polygon fill="#63b8ff" stroke="#63b8ff" points="288.22,-186.71 297.87,-182.33 287.6,-179.73 288.22,-186.71"/>
</a>
</g>
</g>
<!-- Node4 -->
<g id="Node000004" class="node">
<title>Node4</title>
<g id="a_Node000004"><a xlink:href="classsolar__system_1_1Settings.html#ad5175ca2db24119b24eb0f16cf634383" target="_top" xlink:title="Returns the default quit shortcut for the application.">
<polygon fill="white" stroke="#666666" points="429.5,-78 301.5,-78 301.5,-48 429.5,-48 429.5,-78"/>
<text text-anchor="start" x="309.5" y="-66" font-family="Helvetica,sans-Serif" font-size="10.00">solar_system::Settings</text>
<text text-anchor="middle" x="365.5" y="-55" font-family="Helvetica,sans-Serif" font-size="10.00">::defaultQuitShortcut</text>
</a>
</g>
</g>
<!-- Node1&#45;&gt;Node4 -->
<g id="edge3_Node000001_Node000004" class="edge">
<title>Node1&#45;&gt;Node4</title>
<g id="a_edge3_Node000001_Node000004"><a xlink:title=" ">
<path fill="none" stroke="#63b8ff" d="M42.48,-146.42C53.16,-130.25 77.22,-97.97 107,-84 164.7,-56.93 237.68,-53.44 291.2,-55.7"/>
<polygon fill="#63b8ff" stroke="#63b8ff" points="291.13,-59.2 301.29,-56.2 291.48,-52.21 291.13,-59.2"/>
</a>
</g>
</g>
<!-- Node5 -->
<g id="Node000005" class="node">
<title>Node5</title>
<g id="a_Node000005"><a xlink:href="classsolar__system_1_1Settings.html#a21696d009bff87123db173b5d8442489" target="_top" xlink:title="Resets all shortcuts to their default values.">
<polygon fill="white" stroke="#666666" points="252,-171 107,-171 107,-141 252,-141 252,-171"/>
<text text-anchor="start" x="115" y="-159" font-family="Helvetica,sans-Serif" font-size="10.00">solar_system::Settings</text>
<text text-anchor="middle" x="179.5" y="-148" font-family="Helvetica,sans-Serif" font-size="10.00">::resetShortcutsToDefaults</text>
</a>
</g>
</g>
<!-- Node1&#45;&gt;Node5 -->
<g id="edge4_Node000001_Node000005" class="edge">
<title>Node1&#45;&gt;Node5</title>
<g id="a_edge4_Node000001_Node000005"><a xlink:title=" ">
<path fill="none" stroke="#63b8ff" d="M71.24,-156C79.11,-156 87.8,-156 96.72,-156"/>
<polygon fill="#63b8ff" stroke="#63b8ff" points="96.86,-159.5 106.86,-156 96.86,-152.5 96.86,-159.5"/>
</a>
</g>
</g>
<!-- Node6 -->
<g id="Node000006" class="node">
<title>Node6</title>
<g id="a_Node000006"><a xlink:href="classsolar__system_1_1Settings.html#a5412155812fc3d8bd4c493e5e50e8b4b" target="_top" xlink:title="Sets the current full screen shortcut for the application.">
<polygon fill="white" stroke="#666666" points="243.5,-257 115.5,-257 115.5,-227 243.5,-227 243.5,-257"/>
<text text-anchor="start" x="123.5" y="-245" font-family="Helvetica,sans-Serif" font-size="10.00">solar_system::Settings</text>
<text text-anchor="middle" x="179.5" y="-234" font-family="Helvetica,sans-Serif" font-size="10.00">::setFullScreenShortcut</text>
</a>
</g>
</g>
<!-- Node1&#45;&gt;Node6 -->
<g id="edge5_Node000001_Node000006" class="edge">
<title>Node1&#45;&gt;Node6</title>
<g id="a_edge5_Node000001_Node000006"><a xlink:title=" ">
<path fill="none" stroke="#63b8ff" d="M46.3,-165.52C59.32,-177.76 83.41,-199.09 107,-213 112.97,-216.52 119.45,-219.8 125.98,-222.8"/>
<polygon fill="#63b8ff" stroke="#63b8ff" points="124.98,-226.18 135.55,-226.97 127.79,-219.76 124.98,-226.18"/>
</a>
</g>
</g>
<!-- Node8 -->
<g id="Node000008" class="node">
<title>Node8</title>
<g id="a_Node000008"><a xlink:href="classsolar__system_1_1Settings.html#a1c3beec849803d6babfaf3cf72ff7457" target="_top" xlink:title="Sets the current options shortcut for the application.">
<polygon fill="white" stroke="#666666" points="243.5,-123 115.5,-123 115.5,-93 243.5,-93 243.5,-123"/>
<text text-anchor="start" x="123.5" y="-111" font-family="Helvetica,sans-Serif" font-size="10.00">solar_system::Settings</text>
<text text-anchor="middle" x="179.5" y="-100" font-family="Helvetica,sans-Serif" font-size="10.00">::setOptionsShortcut</text>
</a>
</g>
</g>
<!-- Node1&#45;&gt;Node8 -->
<g id="edge8_Node000001_Node000008" class="edge">
<title>Node1&#45;&gt;Node8</title>
<g id="a_edge8_Node000001_Node000008"><a xlink:title=" ">
<path fill="none" stroke="#63b8ff" d="M64.62,-146.4C77.53,-142 93.04,-136.72 107,-132 112.48,-130.15 118.2,-128.22 123.92,-126.29"/>
<polygon fill="#63b8ff" stroke="#63b8ff" points="125.12,-129.58 133.48,-123.08 122.89,-122.95 125.12,-129.58"/>
</a>
</g>
</g>
<!-- Node10 -->
<g id="Node000010" class="node">
<title>Node10</title>
<g id="a_Node000010"><a xlink:href="classsolar__system_1_1Settings.html#a2254d2cd3f6a543d9c34b62cd70f0152" target="_top" xlink:title="Sets the current quit shortcut for the application.">
<polygon fill="white" stroke="#666666" points="243.5,-37 115.5,-37 115.5,-7 243.5,-7 243.5,-37"/>
<text text-anchor="start" x="123.5" y="-25" font-family="Helvetica,sans-Serif" font-size="10.00">solar_system::Settings</text>
<text text-anchor="middle" x="179.5" y="-14" font-family="Helvetica,sans-Serif" font-size="10.00">::setQuitShortcut</text>
</a>
</g>
</g>
<!-- Node1&#45;&gt;Node10 -->
<g id="edge11_Node000001_Node000010" class="edge">
<title>Node1&#45;&gt;Node10</title>
<g id="a_edge11_Node000001_Node000010"><a xlink:title=" ">
<path fill="none" stroke="#63b8ff" d="M40.52,-146.5C49.54,-126.24 73.26,-78.42 107,-51 111.22,-47.57 115.91,-44.49 120.8,-41.75"/>
<polygon fill="#63b8ff" stroke="#63b8ff" points="122.46,-44.84 129.77,-37.17 119.27,-38.6 122.46,-44.84"/>
</a>
</g>
</g>
<!-- Node6&#45;&gt;Node2 -->
<g id="edge6_Node000006_Node000002" class="edge">
<title>Node6&#45;&gt;Node2</title>
<g id="a_edge6_Node000006_Node000002"><a xlink:title=" ">
<path fill="none" stroke="#63b8ff" d="M243.56,-256.74C258.58,-260.25 274.75,-264.03 290.22,-267.64"/>
<polygon fill="#63b8ff" stroke="#63b8ff" points="289.73,-271.12 300.27,-269.99 291.33,-264.31 289.73,-271.12"/>
</a>
</g>
</g>
<!-- Node7 -->
<g id="Node000007" class="node">
<title>Node7</title>
<g id="a_Node000007"><a xlink:href="classsolar__system_1_1Settings.html#a099ba64c665153996530af6eab17fea8" target="_top" xlink:title="Emitted when the full screen shortcut is changed.">
<polygon fill="white" stroke="#666666" points="443,-252 288,-252 288,-222 443,-222 443,-252"/>
<text text-anchor="start" x="296" y="-240" font-family="Helvetica,sans-Serif" font-size="10.00">solar_system::Settings</text>
<text text-anchor="middle" x="365.5" y="-229" font-family="Helvetica,sans-Serif" font-size="10.00">::fullScreenShortcutChanged</text>
</a>
</g>
</g>
<!-- Node6&#45;&gt;Node7 -->
<g id="edge7_Node000006_Node000007" class="edge">
<title>Node6&#45;&gt;Node7</title>
<g id="a_edge7_Node000006_Node000007"><a xlink:title=" ">
<path fill="none" stroke="#63b8ff" d="M243.56,-240.29C254.59,-239.99 266.23,-239.67 277.76,-239.36"/>
<polygon fill="#63b8ff" stroke="#63b8ff" points="277.94,-242.85 287.84,-239.08 277.75,-235.86 277.94,-242.85"/>
</a>
</g>
</g>
<!-- Node8&#45;&gt;Node3 -->
<g id="edge9_Node000008_Node000003" class="edge">
<title>Node8&#45;&gt;Node3</title>
<g id="a_edge9_Node000008_Node000003"><a xlink:title=" ">
<path fill="none" stroke="#63b8ff" d="M225.97,-123.01C234.63,-125.94 243.61,-129.03 252,-132 272.94,-139.42 295.94,-147.94 315.66,-155.36"/>
<polygon fill="#63b8ff" stroke="#63b8ff" points="314.46,-158.65 325.05,-158.9 316.93,-152.1 314.46,-158.65"/>
</a>
</g>
</g>
<!-- Node9 -->
<g id="Node000009" class="node">
<title>Node9</title>
<g id="a_Node000009"><a xlink:href="classsolar__system_1_1Settings.html#a16f10e8241d57ea76d74d53cf1836dcf" target="_top" xlink:title="Emitted when the options shortcut is changed.">
<polygon fill="white" stroke="#666666" points="436.5,-126 294.5,-126 294.5,-96 436.5,-96 436.5,-126"/>
<text text-anchor="start" x="302.5" y="-114" font-family="Helvetica,sans-Serif" font-size="10.00">solar_system::Settings</text>
<text text-anchor="middle" x="365.5" y="-103" font-family="Helvetica,sans-Serif" font-size="10.00">::optionsShortcutChanged</text>
</a>
</g>
</g>
<!-- Node8&#45;&gt;Node9 -->
<g id="edge10_Node000008_Node000009" class="edge">
<title>Node8&#45;&gt;Node9</title>
<g id="a_edge10_Node000008_Node000009"><a xlink:title=" ">
<path fill="none" stroke="#63b8ff" d="M243.56,-109.03C256.58,-109.24 270.46,-109.47 283.99,-109.69"/>
<polygon fill="#63b8ff" stroke="#63b8ff" points="284.21,-113.19 294.26,-109.85 284.32,-106.19 284.21,-113.19"/>
</a>
</g>
</g>
<!-- Node10&#45;&gt;Node4 -->
<g id="edge12_Node000010_Node000004" class="edge">
<title>Node10&#45;&gt;Node4</title>
<g id="a_edge12_Node000010_Node000004"><a xlink:title=" ">
<path fill="none" stroke="#63b8ff" d="M243.56,-36.05C258.84,-39.46 275.3,-43.12 291.01,-46.62"/>
<polygon fill="#63b8ff" stroke="#63b8ff" points="290.68,-50.14 301.21,-48.9 292.21,-43.31 290.68,-50.14"/>
</a>
</g>
</g>
<!-- Node11 -->
<g id="Node000011" class="node">
<title>Node11</title>
<g id="a_Node000011"><a xlink:href="classsolar__system_1_1Settings.html#aa286b151692384fbc801b69565b6f14e" target="_top" xlink:title="Emitted when the quit shortcut is changed.">
<polygon fill="white" stroke="#666666" points="429.5,-30 301.5,-30 301.5,0 429.5,0 429.5,-30"/>
<text text-anchor="start" x="309.5" y="-18" font-family="Helvetica,sans-Serif" font-size="10.00">solar_system::Settings</text>
<text text-anchor="middle" x="365.5" y="-7" font-family="Helvetica,sans-Serif" font-size="10.00">::quitShortcutChanged</text>
</a>
</g>
</g>
<!-- Node10&#45;&gt;Node11 -->
<g id="edge13_Node000010_Node000011" class="edge">
<title>Node10&#45;&gt;Node11</title>
<g id="a_edge13_Node000010_Node000011"><a xlink:title=" ">
<path fill="none" stroke="#63b8ff" d="M243.56,-19.6C258.84,-19.02 275.3,-18.39 291.01,-17.8"/>
<polygon fill="#63b8ff" stroke="#63b8ff" points="291.35,-21.29 301.21,-17.41 291.08,-14.29 291.35,-21.29"/>
</a>
</g>
</g>
</g>
</svg>
