<?xml version="1.0" encoding="UTF-8" standalone="no"?>
<!DOCTYPE svg PUBLIC "-//W3C//DTD SVG 1.1//EN"
 "http://www.w3.org/Graphics/SVG/1.1/DTD/svg11.dtd">
<!-- Generated by graphviz version 2.43.0 (0)
 -->
<!-- Title: TEST_CASE Pages: 1 -->
<svg width="263pt" height="278pt"
 viewBox="0.00 0.00 263.00 278.00" xmlns="http://www.w3.org/2000/svg" xmlns:xlink="http://www.w3.org/1999/xlink">
<g id="graph0" class="graph" transform="scale(1 1) rotate(0) translate(4 274)">
<title>TEST_CASE</title>
<!-- Node1 -->
<g id="Node000001" class="node">
<title>Node1</title>
<g id="a_Node000001"><a xlink:title=" ">
<polygon fill="#999999" stroke="#666666" points="71,-144.5 0,-144.5 0,-125.5 71,-125.5 71,-144.5"/>
<text text-anchor="middle" x="35.5" y="-132.5" font-family="Helvetica,sans-Serif" font-size="10.00">TEST_CASE</text>
</a>
</g>
</g>
<!-- Node2 -->
<g id="Node000002" class="node">
<title>Node2</title>
<g id="a_Node000002"><a xlink:href="classsolar__system_1_1Settings.html#a4367db49b1c928208b55652633b48826" target="_top" xlink:title="Returns the default FPS visibility for the application.">
<polygon fill="white" stroke="#666666" points="245,-270 117,-270 117,-240 245,-240 245,-270"/>
<text text-anchor="start" x="125" y="-258" font-family="Helvetica,sans-Serif" font-size="10.00">solar_system::Settings</text>
<text text-anchor="middle" x="181" y="-247" font-family="Helvetica,sans-Serif" font-size="10.00">::defaultFpsVisible</text>
</a>
</g>
</g>
<!-- Node1&#45;&gt;Node2 -->
<g id="edge1_Node000001_Node000002" class="edge">
<title>Node1&#45;&gt;Node2</title>
<g id="a_edge1_Node000001_Node000002"><a xlink:title=" ">
<path fill="none" stroke="#63b8ff" d="M41.04,-144.72C50.54,-164.02 74.36,-207.33 107,-231 109.08,-232.51 111.26,-233.92 113.51,-235.26"/>
<polygon fill="#63b8ff" stroke="#63b8ff" points="112.02,-238.43 122.5,-239.97 115.27,-232.23 112.02,-238.43"/>
</a>
</g>
</g>
<!-- Node3 -->
<g id="Node000003" class="node">
<title>Node3</title>
<g id="a_Node000003"><a xlink:href="classsolar__system_1_1Settings.html#acc50bcff4bdb3d1f87abb9ffa60baeea" target="_top" xlink:title="Returns the default full screen shortcut for the application.">
<polygon fill="white" stroke="#666666" points="255,-222 107,-222 107,-192 255,-192 255,-222"/>
<text text-anchor="start" x="115" y="-210" font-family="Helvetica,sans-Serif" font-size="10.00">solar_system::Settings</text>
<text text-anchor="middle" x="181" y="-199" font-family="Helvetica,sans-Serif" font-size="10.00">::defaultFullScreenShortcut</text>
</a>
</g>
</g>
<!-- Node1&#45;&gt;Node3 -->
<g id="edge2_Node000001_Node000003" class="edge">
<title>Node1&#45;&gt;Node3</title>
<g id="a_edge2_Node000001_Node000003"><a xlink:title=" ">
<path fill="none" stroke="#63b8ff" d="M48.34,-144.6C61.85,-155.18 84.95,-172.14 107,-183 110.77,-184.86 114.72,-186.62 118.74,-188.28"/>
<polygon fill="#63b8ff" stroke="#63b8ff" points="117.63,-191.61 128.22,-191.99 120.18,-185.09 117.63,-191.61"/>
</a>
</g>
</g>
<!-- Node4 -->
<g id="Node000004" class="node">
<title>Node4</title>
<g id="a_Node000004"><a xlink:href="classsolar__system_1_1Settings.html#a2d46f4a70926d6c873a7afa0fe120999" target="_top" xlink:title="Returns the default language for the application.">
<polygon fill="white" stroke="#666666" points="245,-174 117,-174 117,-144 245,-144 245,-174"/>
<text text-anchor="start" x="125" y="-162" font-family="Helvetica,sans-Serif" font-size="10.00">solar_system::Settings</text>
<text text-anchor="middle" x="181" y="-151" font-family="Helvetica,sans-Serif" font-size="10.00">::defaultLanguage</text>
</a>
</g>
</g>
<!-- Node1&#45;&gt;Node4 -->
<g id="edge3_Node000001_Node000004" class="edge">
<title>Node1&#45;&gt;Node4</title>
<g id="a_edge3_Node000001_Node000004"><a xlink:title=" ">
<path fill="none" stroke="#63b8ff" d="M71.24,-140.81C82.1,-142.63 94.53,-144.7 107,-146.79"/>
<polygon fill="#63b8ff" stroke="#63b8ff" points="106.55,-150.26 116.99,-148.46 107.7,-143.36 106.55,-150.26"/>
</a>
</g>
</g>
<!-- Node5 -->
<g id="Node000005" class="node">
<title>Node5</title>
<g id="a_Node000005"><a xlink:href="classsolar__system_1_1Settings.html#a129d53e02ee19302cd81c6a6b453201b" target="_top" xlink:title="Returns the default options shortcut for the application.">
<polygon fill="white" stroke="#666666" points="248.5,-126 113.5,-126 113.5,-96 248.5,-96 248.5,-126"/>
<text text-anchor="start" x="121.5" y="-114" font-family="Helvetica,sans-Serif" font-size="10.00">solar_system::Settings</text>
<text text-anchor="middle" x="181" y="-103" font-family="Helvetica,sans-Serif" font-size="10.00">::defaultOptionsShortcut</text>
</a>
</g>
</g>
<!-- Node1&#45;&gt;Node5 -->
<g id="edge4_Node000001_Node000005" class="edge">
<title>Node1&#45;&gt;Node5</title>
<g id="a_edge4_Node000001_Node000005"><a xlink:title=" ">
<path fill="none" stroke="#63b8ff" d="M71.24,-129.19C81.05,-127.55 92.14,-125.69 103.39,-123.81"/>
<polygon fill="#63b8ff" stroke="#63b8ff" points="104,-127.26 113.29,-122.16 102.85,-120.36 104,-127.26"/>
</a>
</g>
</g>
<!-- Node6 -->
<g id="Node000006" class="node">
<title>Node6</title>
<g id="a_Node000006"><a xlink:href="classsolar__system_1_1Settings.html#ad5175ca2db24119b24eb0f16cf634383" target="_top" xlink:title="Returns the default quit shortcut for the application.">
<polygon fill="white" stroke="#666666" points="245,-78 117,-78 117,-48 245,-48 245,-78"/>
<text text-anchor="start" x="125" y="-66" font-family="Helvetica,sans-Serif" font-size="10.00">solar_system::Settings</text>
<text text-anchor="middle" x="181" y="-55" font-family="Helvetica,sans-Serif" font-size="10.00">::defaultQuitShortcut</text>
</a>
</g>
</g>
<!-- Node1&#45;&gt;Node6 -->
<g id="edge5_Node000001_Node000006" class="edge">
<title>Node1&#45;&gt;Node6</title>
<g id="a_edge5_Node000001_Node000006"><a xlink:title=" ">
<path fill="none" stroke="#63b8ff" d="M48.34,-125.4C61.85,-114.82 84.95,-97.86 107,-87 110.77,-85.14 114.72,-83.38 118.74,-81.72"/>
<polygon fill="#63b8ff" stroke="#63b8ff" points="120.18,-84.91 128.22,-78.01 117.63,-78.39 120.18,-84.91"/>
</a>
</g>
</g>
<!-- Node7 -->
<g id="Node000007" class="node">
<title>Node7</title>
<g id="a_Node000007"><a xlink:href="classsolar__system_1_1Settings.html#ab2805148c40d902760530c0c71dfb9db" target="_top" xlink:title="Returns the default window opacity for the application.">
<polygon fill="white" stroke="#666666" points="248,-30 114,-30 114,0 248,0 248,-30"/>
<text text-anchor="start" x="122" y="-18" font-family="Helvetica,sans-Serif" font-size="10.00">solar_system::Settings</text>
<text text-anchor="middle" x="181" y="-7" font-family="Helvetica,sans-Serif" font-size="10.00">::defaultWindowOpacity</text>
</a>
</g>
</g>
<!-- Node1&#45;&gt;Node7 -->
<g id="edge6_Node000001_Node000007" class="edge">
<title>Node1&#45;&gt;Node7</title>
<g id="a_edge6_Node000001_Node000007"><a xlink:title=" ">
<path fill="none" stroke="#63b8ff" d="M41.04,-125.28C50.54,-105.98 74.36,-62.67 107,-39 109.08,-37.49 111.26,-36.08 113.51,-34.74"/>
<polygon fill="#63b8ff" stroke="#63b8ff" points="115.27,-37.77 122.5,-30.03 112.02,-31.57 115.27,-37.77"/>
</a>
</g>
</g>
</g>
</svg>
