<?xml version="1.0" encoding="UTF-8" standalone="no"?>
<!DOCTYPE svg PUBLIC "-//W3C//DTD SVG 1.1//EN"
 "http://www.w3.org/Graphics/SVG/1.1/DTD/svg11.dtd">
<!-- Generated by graphviz version 2.43.0 (0)
 -->
<!-- Title: TEST_CASE Pages: 1 -->
<svg width="419pt" height="60pt"
 viewBox="0.00 0.00 419.00 60.00" xmlns="http://www.w3.org/2000/svg" xmlns:xlink="http://www.w3.org/1999/xlink">
<g id="graph0" class="graph" transform="scale(1 1) rotate(0) translate(4 56)">
<title>TEST_CASE</title>
<!-- Node1 -->
<g id="Node000001" class="node">
<title>Node1</title>
<g id="a_Node000001"><a xlink:title=" ">
<polygon fill="#999999" stroke="#666666" points="71,-24.5 0,-24.5 0,-5.5 71,-5.5 71,-24.5"/>
<text text-anchor="middle" x="35.5" y="-12.5" font-family="Helvetica,sans-Serif" font-size="10.00">TEST_CASE</text>
</a>
</g>
</g>
<!-- Node2 -->
<g id="Node000002" class="node">
<title>Node2</title>
<g id="a_Node000002"><a xlink:href="classsolar__system_1_1Settings.html#acf9d396d9fb203641d3efdd09f463417" target="_top" xlink:title="Sets the current window opacity for the application.">
<polygon fill="white" stroke="#666666" points="235,-52 107,-52 107,-22 235,-22 235,-52"/>
<text text-anchor="start" x="115" y="-40" font-family="Helvetica,sans-Serif" font-size="10.00">solar_system::Settings</text>
<text text-anchor="middle" x="171" y="-29" font-family="Helvetica,sans-Serif" font-size="10.00">::setWindowOpacity</text>
</a>
</g>
</g>
<!-- Node1&#45;&gt;Node2 -->
<g id="edge1_Node000001_Node000002" class="edge">
<title>Node1&#45;&gt;Node2</title>
<g id="a_edge1_Node000001_Node000002"><a xlink:title=" ">
<path fill="none" stroke="#63b8ff" d="M71.23,-20.72C79.2,-22.04 87.97,-23.48 96.89,-24.95"/>
<polygon fill="#63b8ff" stroke="#63b8ff" points="96.56,-28.44 106.99,-26.62 97.7,-21.54 96.56,-28.44"/>
</a>
</g>
</g>
<!-- Node3 -->
<g id="Node000003" class="node">
<title>Node3</title>
<g id="a_Node000003"><a xlink:href="classsolar__system_1_1Settings.html#a5716dd304f1e01e66f38820a6f933c1c" target="_top" xlink:title="Emitted when the window opacity is changed.">
<polygon fill="white" stroke="#666666" points="411,-30 271,-30 271,0 411,0 411,-30"/>
<text text-anchor="start" x="279" y="-18" font-family="Helvetica,sans-Serif" font-size="10.00">solar_system::Settings</text>
<text text-anchor="middle" x="341" y="-7" font-family="Helvetica,sans-Serif" font-size="10.00">::windowOpacityChanged</text>
</a>
</g>
</g>
<!-- Node1&#45;&gt;Node3 -->
<g id="edge3_Node000001_Node000003" class="edge">
<title>Node1&#45;&gt;Node3</title>
<g id="a_edge3_Node000001_Node000003"><a xlink:title=" ">
<path fill="none" stroke="#63b8ff" d="M71.28,-13.82C82.66,-13.48 95.37,-13.16 107,-13 163.88,-12.19 178.11,-12.46 235,-13 243.32,-13.08 252.01,-13.19 260.68,-13.33"/>
<polygon fill="#63b8ff" stroke="#63b8ff" points="260.76,-16.83 270.81,-13.5 260.87,-9.83 260.76,-16.83"/>
</a>
</g>
</g>
<!-- Node2&#45;&gt;Node3 -->
<g id="edge2_Node000002_Node000003" class="edge">
<title>Node2&#45;&gt;Node3</title>
<g id="a_edge2_Node000002_Node000003"><a xlink:title=" ">
<path fill="none" stroke="#63b8ff" d="M235.03,-28.75C243.47,-27.64 252.2,-26.5 260.86,-25.36"/>
<polygon fill="#63b8ff" stroke="#63b8ff" points="261.52,-28.81 270.98,-24.04 260.61,-21.87 261.52,-28.81"/>
</a>
</g>
</g>
</g>
</svg>
